<svg width="11" height="14" viewBox="0 0 11 14" fill="none" xmlns="http://www.w3.org/2000/svg">
<g id="Group">
<path id="Vector" d="M1.79922 2.2001C1.79922 1.77575 1.9678 1.36878 2.26785 1.06873C2.56791 0.768669 2.97488 0.600098 3.39922 0.600098H6.26803C6.58618 0.600378 6.8912 0.72699 7.11602 0.952098L10.248 4.0833C10.4728 4.30826 10.5992 4.61326 10.5992 4.9313V10.2001C10.5992 10.6244 10.4307 11.0314 10.1306 11.3315C9.83054 11.6315 9.42357 11.8001 8.99922 11.8001H3.39922C2.97488 11.8001 2.56791 11.6315 2.26785 11.3315C1.9678 11.0314 1.79922 10.6244 1.79922 10.2001V2.2001ZM3.39922 1.4001C3.18705 1.4001 2.98357 1.48438 2.83354 1.63441C2.68351 1.78444 2.59922 1.98792 2.59922 2.2001V10.2001C2.59922 10.4123 2.68351 10.6158 2.83354 10.7658C2.98357 10.9158 3.18705 11.0001 3.39922 11.0001H8.99922C9.2114 11.0001 9.41488 10.9158 9.56491 10.7658C9.71494 10.6158 9.79922 10.4123 9.79922 10.2001V5.4001H6.99922C6.68097 5.4001 6.37574 5.27367 6.1507 5.04863C5.92565 4.82358 5.79922 4.51836 5.79922 4.2001V1.4001H3.39922ZM6.59922 1.5657V4.2001C6.59922 4.30618 6.64137 4.40793 6.71638 4.48294C6.7914 4.55795 6.89314 4.6001 6.99922 4.6001H9.63363L6.59922 1.5657Z" fill="#007CB3"/>
<path id="Vector_2" d="M0.199219 3.0001C0.199219 2.78793 0.283504 2.58445 0.433533 2.43442C0.583563 2.28439 0.787046 2.2001 0.999219 2.2001V10.2001C0.999219 10.8366 1.25208 11.4471 1.70216 11.8972C2.15225 12.3472 2.7627 12.6001 3.39922 12.6001H8.99922C8.99922 12.8123 8.91493 13.0158 8.7649 13.1658C8.61488 13.3158 8.41139 13.4001 8.19922 13.4001H3.35122C2.51526 13.4001 1.71353 13.068 1.12242 12.4769C0.531304 11.8858 0.199219 11.0841 0.199219 10.2481V3.0001Z" fill="#007CB3"/>
</g>
</svg>
