<svg width="21" height="21" viewBox="0 0 21 21" fill="none" xmlns="http://www.w3.org/2000/svg">
<path d="M10.5 1.96875C5.796 1.96875 1.96875 5.796 1.96875 10.5C1.96875 15.204 5.796 19.0312 10.5 19.0312C15.204 19.0312 19.0312 15.204 19.0312 10.5C19.0312 5.796 15.204 1.96875 10.5 1.96875ZM10.5 3.28125C14.4939 3.28125 17.7188 6.50606 17.7188 10.5C17.7188 14.4939 14.4939 17.7188 10.5 17.7188C6.50606 17.7188 3.28125 14.4939 3.28125 10.5C3.28125 6.50606 6.50606 3.28125 10.5 3.28125ZM10.4383 6.5625C8.25694 6.5625 6.50081 8.31862 6.50081 10.5C6.50081 12.6814 8.25694 14.4375 10.4383 14.4375C12.0127 14.4375 13.3586 13.4938 13.986 12.161L12.7969 11.6077C12.3736 12.5068 11.4896 13.125 10.4383 13.125C8.94403 13.125 7.81331 11.9943 7.81331 10.5C7.81331 9.00572 8.94403 7.875 10.4383 7.875C11.4896 7.875 12.3743 8.49253 12.7969 9.39291L13.9867 8.83903C13.358 7.50619 12.0127 6.5625 10.4377 6.5625H10.4383Z" fill="black"/>
</svg>
