<svg width="32" height="32" viewBox="0 0 32 32" fill="none" xmlns="http://www.w3.org/2000/svg">
<circle cx="16" cy="16" r="16" fill="url(#paint0_linear)"/>
<path d="M16.7014 7.02455C15.8401 7.17925 14.9789 7.33397 14.1177 7.48886C14.6503 7.62322 15.1101 8.0468 15.1252 8.59703C15.1121 9.24999 15.0933 9.90382 15.1025 10.5574C13.8266 10.6008 13.0859 10.5091 11.8221 10.7141C10.4702 10.987 9.65711 11.2178 8.47969 12.5038C7.30227 13.7897 6.99419 16.0663 7.00008 17.8485C7.03304 19.8045 7.3577 21.8737 8.57264 23.4974C9.4459 24.691 11.0914 25.2252 12.5562 24.9119C13.8567 24.6672 14.8956 23.6486 15.2759 22.4473C15.6819 21.3281 15.8342 20.0635 15.4435 18.9223C15.2335 18.4315 14.6231 17.9486 14.0626 18.23C13.3304 18.6707 13.2208 19.6178 13.2943 20.3752C13.3115 20.8896 13.5932 21.3475 13.9388 21.7217C14.2073 22.4753 13.679 23.2722 13.056 23.7027C12.1347 24.3492 10.7377 24.1734 10.0588 23.2812C9.03982 21.9761 8.78698 20.3042 8.61541 18.7228C8.46604 16.7904 8.35417 14.726 9.38644 13.0147C10.0297 11.966 11.2454 11.5701 12.2321 11.5007C13.2189 11.4312 14.1453 11.5034 15.1068 11.4951C15.1649 13.6229 14.9512 15.767 15.2416 17.8831C15.639 19.0794 17.1492 19.6916 18.3543 19.2983C18.7499 19.1995 19.0647 18.9204 19.285 18.5988C18.6347 18.4652 17.8436 18.7796 17.3162 18.279C16.6621 17.6095 16.8549 16.6202 16.84 15.7844C16.8572 14.3539 16.8263 12.9234 16.8369 11.4928H22.9403C21.254 13.466 19.5367 15.4153 17.8703 17.4037C18.8684 16.9466 20.0366 16.7399 21.1111 17.0694C21.9936 17.3161 22.777 17.9227 23.0773 18.7764C23.4863 19.9181 23.2811 21.2515 22.5375 22.228C21.9961 22.9309 21.0805 23.3179 20.1846 23.2535C19.4423 23.25 18.5731 23.0716 18.1365 22.4447C18.1042 22.1028 18.5976 22.1012 18.6984 21.8077C19.1276 21.1006 18.5165 20.0485 17.6425 20.1043C16.7715 20.0773 16.0248 21.0164 16.3626 21.8117C16.6575 23.0737 17.9925 23.8779 19.2786 23.9432C20.8836 24.171 22.7227 23.942 23.9096 22.7817C25.5101 21.1658 25.3507 18.186 23.4179 16.8741C22.5232 16.29 21.3721 16.2821 20.3617 16.1883C20.4879 15.8732 20.8429 15.6885 21.0228 15.399C22.206 14.0261 23.4584 12.7042 24.5719 11.278C24.764 11.0862 24.8168 10.8149 24.5442 10.6656C24.2495 10.4799 23.9492 10.5575 23.5751 10.5451C21.3295 10.5708 19.0837 10.5399 16.838 10.5512V7C16.7924 7.00817 16.7468 7.01636 16.7012 7.02454L16.7014 7.02455Z" fill="white"/>
<defs>
<linearGradient id="paint0_linear" x1="0" y1="16" x2="32" y2="16" gradientUnits="userSpaceOnUse">
<stop stop-color="#2B62F8"/>
<stop offset="1" stop-color="#605CCE"/>
</linearGradient>
</defs>
</svg>
