<svg width="25" height="19" viewBox="0 0 25 19" fill="none" xmlns="http://www.w3.org/2000/svg">
<g clip-path="url(#clip0_2_1054)">
<path d="M21.1636 1.692C19.5701 0.974699 17.8614 0.446223 16.0749 0.143543C16.0424 0.137701 16.0099 0.1523 15.9931 0.181497C15.7733 0.564956 15.5299 1.06521 15.3595 1.4584C13.4379 1.17617 11.5262 1.17617 9.64408 1.4584C9.47359 1.05647 9.22134 0.564956 9.0006 0.181497C8.98384 0.153274 8.95134 0.138675 8.9188 0.143543C7.13324 0.445256 5.42454 0.973732 3.83014 1.692C3.81634 1.69784 3.80451 1.70758 3.79666 1.72022C0.555616 6.47071 -0.33224 11.1044 0.103313 15.6807C0.105283 15.7031 0.118094 15.7245 0.135831 15.7381C2.27418 17.2788 4.34553 18.2141 6.37842 18.834C6.41095 18.8438 6.44542 18.8321 6.46613 18.8058C6.94701 18.1615 7.37567 17.4822 7.7432 16.7678C7.76489 16.726 7.74419 16.6763 7.69986 16.6598C7.01993 16.4067 6.3725 16.0982 5.74972 15.7479C5.70046 15.7196 5.69651 15.6505 5.74183 15.6174C5.87289 15.5211 6.00398 15.4208 6.12912 15.3196C6.15176 15.3011 6.18331 15.2972 6.20993 15.3089C10.3013 17.1416 14.7308 17.1416 18.7739 15.3089C18.8005 15.2962 18.8321 15.3001 18.8557 15.3186C18.9809 15.4198 19.1119 15.5211 19.244 15.6174C19.2893 15.6505 19.2863 15.7196 19.2371 15.7479C18.6143 16.105 17.9669 16.4067 17.2859 16.6588C17.2416 16.6754 17.2219 16.726 17.2436 16.7678C17.619 17.4812 18.0477 18.1605 18.5197 18.8049C18.5394 18.8321 18.5749 18.8438 18.6074 18.834C20.6501 18.2141 22.7215 17.2788 24.8598 15.7381C24.8786 15.7245 24.8904 15.7041 24.8924 15.6817C25.4136 10.391 24.0193 5.79528 21.1961 1.72119C21.1892 1.70758 21.1774 1.69784 21.1636 1.692ZM8.35419 12.8942C7.12239 12.8942 6.10743 11.7847 6.10743 10.4222C6.10743 9.05958 7.10271 7.95008 8.35419 7.95008C9.61549 7.95008 10.6206 9.06932 10.6009 10.4222C10.6009 11.7847 9.60563 12.8942 8.35419 12.8942ZM16.6612 12.8942C15.4294 12.8942 14.4145 11.7847 14.4145 10.4222C14.4145 9.05958 15.4097 7.95008 16.6612 7.95008C17.9225 7.95008 18.9276 9.06932 18.908 10.4222C18.908 11.7847 17.9225 12.8942 16.6612 12.8942Z" fill="black"/>
</g>
<defs>
<clipPath id="clip0_2_1054">
<rect width="25" height="19" fill="white"/>
</clipPath>
</defs>
</svg>
