<svg width="28" height="32" viewBox="0 0 28 32" fill="none" xmlns="http://www.w3.org/2000/svg">
<g clip-path="url(#clip0_2073_21287)">
<path d="M0.601562 8.36881L13.818 0.738281L27.0345 8.36881V23.6299L13.818 31.2604L0.601562 23.6299V8.36881Z" stroke="url(#paint0_linear_2073_21287)" stroke-width="1.45455"/>
<mask id="mask0_2073_21287" style="mask-type:alpha" maskUnits="userSpaceOnUse" x="2" y="2" width="24" height="28">
<path d="M13.8178 2.87109L25.1864 9.43473V22.562L13.8178 29.1256L2.44922 22.562V9.43473L13.8178 2.87109Z" fill="#C4C4C4"/>
</mask>
<g mask="url(#mask0_2073_21287)">
<path d="M13.8182 29.818C21.4498 29.818 27.6364 23.6314 27.6364 15.9998C27.6364 8.36825 21.4498 2.18164 13.8182 2.18164C6.18661 2.18164 0 8.36825 0 15.9998C0 23.6314 6.18661 29.818 13.8182 29.818Z" fill="#F2F2F2"/>
<path d="M14 30C21.732 30 28 23.732 28 16C28 8.26801 21.732 2 14 2C6.26801 2 0 8.26801 0 16C0 23.732 6.26801 30 14 30Z" fill="#F2F2F2"/>
<path d="M14.6235 8.02182C13.8579 8.15933 13.0924 8.29686 12.3268 8.43454C12.8003 8.55397 13.209 8.93049 13.2224 9.41958C13.2108 9.99999 13.1941 10.5812 13.2022 11.1621C12.0681 11.2007 11.4097 11.1192 10.2863 11.3014C9.08463 11.544 8.36188 11.7492 7.31528 12.8923C6.26869 14.0353 5.99484 16.0589 6.00007 17.6431C6.02937 19.3818 6.31796 21.2211 7.39791 22.6644C8.17414 23.7253 9.6368 24.2002 10.9388 23.9217C12.0948 23.7042 13.0183 22.7988 13.3564 21.7309C13.7173 20.7361 13.8526 19.612 13.5053 18.5976C13.3187 18.1613 12.7761 17.7321 12.2779 17.9822C11.627 18.374 11.5296 19.2158 11.5949 19.8891C11.6102 20.3463 11.8606 20.7533 12.1678 21.086C12.4065 21.7558 11.9369 22.4642 11.3831 22.8469C10.5642 23.4215 9.3224 23.2653 8.71894 22.4722C7.81318 21.3121 7.58843 19.826 7.43592 18.4203C7.30315 16.7026 7.20371 14.8676 8.12128 13.3464C8.69307 12.4142 9.77369 12.0623 10.6508 12.0006C11.5279 11.9388 12.3514 12.003 13.2061 11.9956C13.2577 13.887 13.0677 15.7929 13.3259 17.6739C13.6791 18.7373 15.0215 19.2814 16.0927 18.9318C16.4444 18.844 16.7242 18.5959 16.92 18.3101C16.342 18.1913 15.6388 18.4708 15.17 18.0258C14.5885 17.4307 14.7599 16.5513 14.7467 15.8084C14.762 14.5368 14.7345 13.2652 14.7439 11.9936H20.1692C18.6702 13.7476 17.1437 15.4803 15.6625 17.2477C16.5497 16.8414 17.5881 16.6577 18.5432 16.9506C19.3277 17.1699 20.024 17.7091 20.2909 18.4679C20.6545 19.4828 20.4721 20.668 19.8111 21.536C19.3299 22.1608 18.516 22.5048 17.7197 22.4476C17.0598 22.4445 16.2872 22.2859 15.8991 21.7286C15.8704 21.4247 16.309 21.4233 16.3986 21.1624C16.7801 20.5339 16.2369 19.5987 15.46 19.6483C14.6858 19.6243 14.0221 20.459 14.3223 21.166C14.5845 22.2877 15.7711 23.0026 16.9143 23.0606C18.341 23.2631 19.9757 23.0596 21.0308 22.0282C22.4534 20.5918 22.3117 17.9431 20.5937 16.777C19.7984 16.2578 18.7752 16.2508 17.8771 16.1674C17.9893 15.8873 18.3048 15.7231 18.4647 15.4658C19.5165 14.2454 20.6297 13.0704 21.6195 11.8027C21.7902 11.6322 21.8372 11.391 21.5949 11.2583C21.3329 11.0932 21.066 11.1622 20.7334 11.1512C18.7373 11.174 16.7411 11.1466 14.7449 11.1566V8C14.7044 8.00726 14.6638 8.01454 14.6233 8.02181L14.6235 8.02182Z" fill="black" fill-opacity="0.67"/>
</g>
</g>
<defs>
<linearGradient id="paint0_linear_2073_21287" x1="-9.31078" y1="15.9994" x2="30.3386" y2="15.9994" gradientUnits="userSpaceOnUse">
<stop stop-color="#05E3B2"/>
<stop offset="0.184658" stop-color="#39E4B8"/>
<stop offset="1" stop-color="#8C7BCC"/>
</linearGradient>
<clipPath id="clip0_2073_21287">
<rect width="27.6364" height="32" fill="white"/>
</clipPath>
</defs>
</svg>
