<?xml version="1.0" encoding="UTF-8"?>
<svg width="29px" height="33px" viewBox="0 0 29 33" version="1.1" xmlns="http://www.w3.org/2000/svg" xmlns:xlink="http://www.w3.org/1999/xlink">
    <title>ꜰUSDt</title>
    <defs>
        <linearGradient x1="-37.4999631%" y1="50.0001949%" x2="112.499935%" y2="50.0001949%" id="linearGradient-1">
            <stop stop-color="#0F61FF" offset="0%"></stop>
            <stop stop-color="#0F61FF" offset="18.4658%"></stop>
            <stop stop-color="#9F329F" offset="100%"></stop>
        </linearGradient>
        <polygon id="path-2" points="11.36858 0 22.73718 6.56364 22.73718 19.69091 11.36858 26.25451 0 19.69091 0 6.56364"></polygon>
    </defs>
    <g id="Page-1" stroke="none" stroke-width="1" fill="none" fill-rule="evenodd">
        <g id="ꜰUSDt" transform="translate(1.000000, 1.000000)">
            <polygon id="Path" stroke="url(#linearGradient-1)" stroke-width="1.45455" points="0 7.630529 13.216438 0 26.432938 7.630529 26.432938 22.891619 13.216438 30.522119 0 22.891619"></polygon>
            <g id="Group-Clipped" transform="translate(1.848048, 2.134284)">
                <mask id="mask-3" fill="white">
                    <use xlink:href="#path-2"></use>
                </mask>
                <g id="path-2"></g>
                <g id="Group" mask="url(#mask-3)">
                    <g transform="translate(-2.449610, -0.690925)">
                        <path d="M13.8182,27.63636 C21.4498,27.63636 27.6364,21.44976 27.6364,13.81816 C27.6364,6.18661 21.4498,0 13.8182,0 C6.18661,0 0,6.18661 0,13.81816 C0,21.44976 6.18661,27.63636 13.8182,27.63636 Z" id="Path" fill="#F2F2F2" fill-rule="nonzero"></path>
                        <path d="M20.2259066,7.81818 L20.2259066,10.145241 L15.4153613,10.145241 L15.4153613,11.7586743 C18.7939487,11.9310905 21.3288125,12.6392456 21.3476215,13.4880435 L21.3476215,15.2575014 C21.3287062,16.1062993 18.7939487,16.8144278 15.4153613,16.986844 L15.4153613,20.9463864 L12.2210653,20.9463864 L12.2210653,16.986844 C8.84245129,16.8144278 6.30758754,16.1062993 6.2887785,15.2575014 L6.2887785,13.4880435 C6.30769381,12.6392456 8.84245129,11.9310905 12.2210653,11.7586743 L12.2210653,10.145241 L7.41049343,10.145241 L7.41049343,7.81818 L20.2259066,7.81818 Z M13.8182133,15.7712167 C17.4237844,15.7712167 20.4374552,15.1724091 21.1749662,14.3727591 C20.549539,13.6946507 18.2873266,13.160984 15.4153613,13.0144169 L15.4153613,14.7036708 C14.9005833,14.729945 14.3662259,14.7437861 13.8182133,14.7437861 C13.2701741,14.7437861 12.7358167,14.729945 12.2210653,14.7036708 L12.2210653,13.0144169 C9.34907337,13.160984 7.08686102,13.6946507 6.46143381,14.3727591 C7.19897141,15.1724091 10.2126156,15.7712167 13.8182133,15.7712167 Z" id="Shape" fill="#505050"></path>
                    </g>
                </g>
            </g>
        </g>
    </g>
</svg>