<?xml version="1.0" encoding="UTF-8"?>
<svg width="105px" height="121px" viewBox="0 0 105 121" version="1.1" xmlns="http://www.w3.org/2000/svg" xmlns:xlink="http://www.w3.org/1999/xlink">
    <title>ꜰUSDt (Tether)</title>
    <defs>
        <linearGradient x1="-37.4999631%" y1="50.0001949%" x2="112.499935%" y2="50.0001949%" id="linearGradient-1">
            <stop stop-color="#0F61FF" offset="0%"></stop>
            <stop stop-color="#0F61FF" offset="18.4658%"></stop>
            <stop stop-color="#9F329F" offset="100%"></stop>
        </linearGradient>
        <linearGradient x1="-37.4999631%" y1="50.0001949%" x2="112.499935%" y2="50.0001949%" id="linearGradient-2">
            <stop stop-color="#0F61FF" offset="0%"></stop>
            <stop stop-color="#0F61FF" offset="18.4658%"></stop>
            <stop stop-color="#9F329F" offset="100%"></stop>
        </linearGradient>
        <polygon id="path-3" points="40.2650239 0 80.5301187 23.2469773 80.5301187 69.7408966 40.2650239 92.9877322 0 69.7408966 0 23.2469773"></polygon>
    </defs>
    <g id="ꜰTokens" stroke="none" stroke-width="1" fill="none" fill-rule="evenodd">
        <g id="ꜰUSDt-(Tether)" transform="translate(0.797678, 0.163865)">
            <path d="M101.347232,31.4871635 L51.9614278,2.97433393 L2.57584899,31.487167 L2.57584899,88.5129442 L51.9614278,117.025669 L101.347232,88.5129476 L101.347232,31.4871635 Z M51.9598795,8.92022235 L96.193186,34.4600072 L96.193186,85.5360352 L51.9598795,111.07582 L7.72657297,85.5360352 L7.72657297,34.4600072 L51.9598795,8.92022235 Z" id="Path" fill="url(#linearGradient-1)" fill-rule="nonzero"></path>
            <path d="M103.923081,30 L51.9614247,0 L0,30 L0,90.0001126 L51.9614247,120 L103.923081,90.0001196 L103.923081,30 Z M51.9614308,5.94866785 L98.7713832,32.9743327 L98.7713832,87.0257757 L51.9614308,114.051338 L5.15169797,87.0257757 L5.15169797,32.9743327 L51.9614308,5.94866785 Z" id="Path" fill="url(#linearGradient-2)" fill-rule="nonzero"></path>
            <g id="Clipped" transform="translate(11.697080, 13.507835)">
                <mask id="mask-4" fill="white">
                    <use xlink:href="#path-3"></use>
                </mask>
                <g id="Path"></g>
                <g id="Group" mask="url(#mask-4)" fill="#F2F2F2" fill-rule="nonzero">
                    <g transform="translate(-8.675983, -2.447105)" id="Path">
                        <path d="M48.9410422,97.8819427 C75.9705003,97.8819427 97.8820844,75.9703586 97.8820844,48.9409005 C97.8820844,21.9116195 75.9705003,0 48.9410422,0 C21.9116195,0 0,21.9116195 0,48.9409005 C0,75.9703586 21.9116195,97.8819427 48.9410422,97.8819427 Z"></path>
                    </g>
                </g>
            </g>
            <path d="M75.3903141,38.0017011 L75.3903141,46.5100171 L57.8017596,46.5100171 L57.8017596,52.409132 C70.1547186,53.0395287 79.4228134,55.6287205 79.4915838,58.7321375 L79.4915838,65.2017173 C79.4224248,68.3051344 70.1547186,70.8942289 57.8017596,71.5246256 L57.8017596,86.0017011 L46.122616,86.0017011 L46.122616,71.5246256 C33.7695597,70.8942289 24.501465,68.3051344 24.4326944,65.2017173 L24.4326944,58.7321375 C24.5018535,55.6287205 33.7695597,53.0395287 46.122616,52.409132 L46.122616,46.5100171 L28.5339643,46.5100171 L28.5339643,38.0017011 L75.3903141,38.0017011 Z M51.9621878,67.0799887 C65.1450558,67.0799887 76.1637886,64.8905987 78.8603129,61.9668786 C76.573595,59.487545 68.3023817,57.5363263 57.8017596,57.0004404 L57.8017596,63.1767744 C55.9196027,63.2728394 53.9658586,63.323446 51.9621878,63.323446 C49.9584196,63.323446 48.0046756,63.2728394 46.122616,63.1767744 L46.122616,57.0004404 C35.6218965,57.5363263 27.3506834,59.487545 25.0639654,61.9668786 C27.7605869,64.8905987 38.7792224,67.0799887 51.9621878,67.0799887 Z" id="Shape" fill="#505050"></path>
        </g>
    </g>
</svg>