<svg width="28" height="32" viewBox="0 0 28 32" fill="none" xmlns="http://www.w3.org/2000/svg">
<g clip-path="url(#clip0_2450_18817)">
<path d="M0.609375 8.36881L13.9998 0.738281L27.3901 8.36881V23.6299L13.9998 31.2604L0.609375 23.6299V8.36881Z" stroke="url(#paint0_linear_2450_18817)" stroke-width="1.45455"/>
<mask id="mask0_2450_18817" style="mask-type:alpha" maskUnits="userSpaceOnUse" x="2" y="2" width="24" height="28">
<path d="M13.9996 2.87109L25.5178 9.43473V22.562L13.9996 29.1256L2.48145 22.562V9.43473L13.9996 2.87109Z" fill="#C4C4C4"/>
</mask>
<g mask="url(#mask0_2450_18817)">
<path d="M14 29.818C21.732 29.818 28 23.6314 28 15.9998C28 8.36825 21.732 2.18164 14 2.18164C6.26801 2.18164 0 8.36825 0 15.9998C0 23.6314 6.26801 29.818 14 29.818Z" fill="#F2F2F2"/>
</g>
<path fill-rule="evenodd" clip-rule="evenodd" d="M19.7502 19.3692C19.5951 16.6591 16.141 15.4273 15.8105 15.3008C15.797 15.2941 15.797 15.2808 15.8037 15.2675L19.3657 11.7385V11.3589C19.3637 11.297 19.3137 11.2477 19.251 11.2457H12.687V9.12164V8.48242L10.2651 8.98181V9.34138H10.4C10.4 9.34138 10.9937 9.34138 10.9937 9.92733V11.2391H9.11824C9.08181 11.2417 9.05348 11.2697 9.05078 11.3057V12.138H11.0004V16.6591C11.0004 18.0774 11.9247 19.0629 13.5437 18.9297C13.877 18.8971 14.1974 18.7826 14.4747 18.5968C14.5968 18.5195 14.6703 18.387 14.6703 18.2439V17.7978C14.1441 18.144 13.6989 18.124 13.6989 18.124C12.6735 18.124 12.6937 16.8389 12.6937 16.8389V12.138H17.416L14.016 15.5205C14.0092 15.9666 14.0025 16.3129 14.0025 16.3196C14.0011 16.3295 14.0085 16.3382 14.0187 16.3395C14.02 16.3395 14.0214 16.3395 14.0227 16.3395C17.1394 16.8589 17.9827 18.8498 17.9827 19.4291C17.9827 19.4291 18.32 22.2457 15.4664 22.4388C15.4664 22.4388 13.5977 22.5187 13.2671 21.7796C13.255 21.7556 13.2658 21.7263 13.2901 21.715C13.2914 21.7143 13.2928 21.7137 13.2941 21.713C13.6119 21.5818 13.8176 21.2742 13.8136 20.9339C13.8136 20.3879 13.4763 19.9418 12.7679 19.9418C12.1945 19.9418 11.7223 20.3879 11.7223 20.9339C11.7223 20.9339 11.4524 23.3044 15.4596 23.2378C20.0336 23.1579 19.7502 19.3692 19.7502 19.3692Z" fill="black" fill-opacity="0.67"/>
<path d="M7.97255 22.3517V21.3649H7.56758C7.33135 21.3649 7.17105 21.2712 7.08668 21.0838C7.00231 20.8965 6.96013 20.6571 6.96013 20.3656V18.2671C6.96013 18.0173 6.93482 17.8029 6.8842 17.6239C6.83358 17.4448 6.76819 17.2991 6.68804 17.1867C6.60789 17.0743 6.52141 16.9889 6.42861 16.9306C6.3358 16.8723 6.24722 16.8349 6.16285 16.8182V16.7932C6.24722 16.7766 6.3358 16.7391 6.42861 16.6808C6.52141 16.6225 6.60789 16.5372 6.68804 16.4247C6.76819 16.3123 6.83358 16.1666 6.8842 15.9876C6.93482 15.8085 6.96013 15.5941 6.96013 15.3443V13.2458C6.96013 12.9544 7.00231 12.715 7.08668 12.5276C7.17105 12.3402 7.33135 12.2465 7.56758 12.2465H7.97255V11.2598H7.23854C6.73233 11.2598 6.37166 11.4305 6.15652 11.7719C5.94138 12.1133 5.83381 12.5713 5.83381 13.1459V15.1444C5.83381 15.3693 5.81694 15.5545 5.78319 15.7003C5.74944 15.846 5.70304 15.9605 5.64398 16.0438C5.58493 16.127 5.51532 16.1853 5.43517 16.2186C5.35502 16.252 5.26433 16.2686 5.16309 16.2686V17.3428C5.26433 17.3428 5.35502 17.3595 5.43517 17.3928C5.51532 17.4261 5.58493 17.4844 5.64398 17.5677C5.70304 17.6509 5.74944 17.7654 5.78319 17.9112C5.81694 18.0569 5.83381 18.2422 5.83381 18.467V20.4655C5.83381 21.0401 5.94138 21.4981 6.15652 21.8395C6.37166 22.181 6.73233 22.3517 7.23854 22.3517H7.97255Z" fill="black" fill-opacity="0.67"/>
<path d="M20.607 22.3517V21.3649H21.012C21.2482 21.3649 21.4085 21.2712 21.4929 21.0838C21.5773 20.8965 21.6195 20.6571 21.6195 20.3656V18.2671C21.6195 18.0173 21.6448 17.8029 21.6954 17.6239C21.746 17.4448 21.8114 17.2991 21.8915 17.1867C21.9717 17.0743 22.0582 16.9889 22.151 16.9306C22.2438 16.8723 22.3324 16.8349 22.4167 16.8182V16.7932C22.3324 16.7766 22.2438 16.7391 22.151 16.6808C22.0582 16.6225 21.9717 16.5372 21.8915 16.4247C21.8114 16.3123 21.746 16.1666 21.6954 15.9876C21.6448 15.8085 21.6195 15.5941 21.6195 15.3443V13.2458C21.6195 12.9544 21.5773 12.715 21.4929 12.5276C21.4085 12.3402 21.2482 12.2465 21.012 12.2465H20.607V11.2598H21.341C21.8473 11.2598 22.2079 11.4305 22.4231 11.7719C22.6382 12.1133 22.7458 12.5713 22.7458 13.1459V15.1444C22.7458 15.3693 22.7627 15.5545 22.7964 15.7003C22.8301 15.846 22.8765 15.9605 22.9356 16.0438C22.9947 16.127 23.0643 16.1853 23.1444 16.2186C23.2246 16.252 23.3153 16.2686 23.4165 16.2686V17.3428C23.3153 17.3428 23.2246 17.3595 23.1444 17.3928C23.0643 17.4261 22.9947 17.4844 22.9356 17.5677C22.8765 17.6509 22.8301 17.7654 22.7964 17.9112C22.7627 18.0569 22.7458 18.2422 22.7458 18.467V20.4655C22.7458 21.0401 22.6382 21.4981 22.4231 21.8395C22.2079 22.181 21.8473 22.3517 21.341 22.3517H20.607Z" fill="black" fill-opacity="0.67"/>
</g>
<defs>
<linearGradient id="paint0_linear_2450_18817" x1="-9.43339" y1="15.9994" x2="30.7377" y2="15.9994" gradientUnits="userSpaceOnUse">
<stop stop-color="#05E3B2"/>
<stop offset="0.184658" stop-color="#39E4B8"/>
<stop offset="1" stop-color="#8C7BCC"/>
</linearGradient>
<clipPath id="clip0_2450_18817">
<rect width="28" height="32" fill="white"/>
</clipPath>
</defs>
</svg>
