<?xml version="1.0" encoding="UTF-8"?>
<svg width="29px" height="33px" viewBox="0 0 29 33" version="1.1" xmlns="http://www.w3.org/2000/svg" xmlns:xlink="http://www.w3.org/1999/xlink">
    <title>ꜰXTZ</title>
    <defs>
        <linearGradient x1="-37.4999631%" y1="50.0001949%" x2="112.499935%" y2="50.0001949%" id="linearGradient-1">
            <stop stop-color="#0F61FF" offset="0%"></stop>
            <stop stop-color="#0F61FF" offset="18.4658%"></stop>
            <stop stop-color="#9F329F" offset="100%"></stop>
        </linearGradient>
        <polygon id="path-2" points="11.36858 0 22.73718 6.56364 22.73718 19.69091 11.36858 26.25451 0 19.69091 0 6.56364"></polygon>
    </defs>
    <g id="Page-1" stroke="none" stroke-width="1" fill="none" fill-rule="evenodd">
        <g id="ꜰXTZ" transform="translate(1.000000, 1.000000)">
            <polygon id="Path" stroke="url(#linearGradient-1)" stroke-width="1.45455" points="0 7.630529 13.216438 0 26.432938 7.630529 26.432938 22.891619 13.216438 30.522119 0 22.891619"></polygon>
            <g id="Clipped" transform="translate(1.848048, 2.134284)">
                <mask id="mask-3" fill="white">
                    <use xlink:href="#path-2"></use>
                </mask>
                <g id="Path"></g>
                <g id="Group" mask="url(#mask-3)" fill-rule="nonzero">
                    <g transform="translate(-2.449610, -0.690925)">
                        <path d="M13.8182,27.63636 C21.4498,27.63636 27.6364,21.44976 27.6364,13.81816 C27.6364,6.18661 21.4498,0 13.8182,0 C6.18661,0 0,6.18661 0,13.81816 C0,21.44976 6.18661,27.63636 13.8182,27.63636 Z" id="Path" fill="#F2F2F2"></path>
                        <path d="M19.5414551,17.6221326 C19.3754056,14.6837787 15.6789997,13.3481632 15.3252421,13.2109919 C15.310803,13.2037724 15.310803,13.1893333 15.3180225,13.1748942 L19.1299412,9.34853647 L19.1299412,8.93702252 C19.1277753,8.86988077 19.0743507,8.81645616 19.007209,8.81429029 L11.9825937,8.81429029 L11.9825937,6.51125612 L11.9825937,6.51125612 L11.9825937,5.81818 L9.39077784,6.35964572 L9.39077784,6.74950103 L9.5351687,6.74950103 C9.5351687,6.74950103 10.1704885,6.74950103 10.1704885,7.3848208 L10.1704885,8.80707075 L8.16345555,8.80707075 C8.12447002,8.80995857 8.09414794,8.84028065 8.09126012,8.87926618 L8.09126012,9.78170904 L10.177708,9.78170904 L10.177708,14.6837787 C10.177708,16.2215413 11.1667854,17.2900336 12.8994757,17.1456428 C13.2561211,17.110267 13.5990494,16.9860909 13.8957726,16.7846656 C14.0264463,16.7009189 14.1051393,16.55725 14.1051393,16.4020299 L14.1051393,15.9183205 C13.542015,16.2937367 13.0655252,16.2720781 13.0655252,16.2720781 C11.9681546,16.2720781 11.9898133,14.8787063 11.9898133,14.8787063 L11.9898133,9.78170904 L17.0434933,9.78170904 L13.4048437,13.4492368 C13.3976241,13.9329462 13.3904046,14.3083624 13.3904046,14.315582 C13.3889607,14.3264113 13.3969022,14.3357967 13.4077315,14.3372406 C13.4091754,14.3372406 13.4106193,14.3372406 13.4120632,14.3372406 C16.747492,14.9003649 17.6499349,17.0590083 17.6499349,17.6871085 C17.6499349,17.6871085 18.010912,20.7409751 14.9570454,20.9503419 C14.9570454,20.9503419 12.957232,21.0369764 12.6034744,20.2356071 C12.5904792,20.2096168 12.6020305,20.1778508 12.6280209,20.1655776 C12.6294648,20.1648556 12.6309087,20.1641337 12.6323526,20.1634117 C12.9723931,20.0211867 13.1925891,19.6876438 13.1882574,19.3187252 C13.1882574,18.7267227 12.8272803,18.2430133 12.0692283,18.2430133 C11.4555671,18.2430133 10.9501991,18.7267227 10.9501991,19.3187252 C10.9501991,19.3187252 10.6614174,21.8888824 14.9498259,21.816687 C19.8446759,21.7300525 19.5414551,17.6221326 19.5414551,17.6221326 Z" id="s" fill="#505050"></path>
                    </g>
                </g>
            </g>
        </g>
    </g>
</svg>