<svg width="192" height="38" viewBox="0 0 192 38" fill="none" xmlns="http://www.w3.org/2000/svg">
<path d="M93.4472 36.1111V29.6867H90.7446C89.9175 29.6867 89.3268 29.5243 88.9723 29.1994C88.6179 28.8745 88.4407 28.3428 88.4407 27.6044V17.6799H93.4029V11.3884H88.4407V5.36283H80.8644V11.3884H77.8516V17.6799H80.8644V27.5158C80.8644 30.5581 81.6323 32.7512 83.1683 34.0952C84.7042 35.4391 86.8457 36.1111 89.5926 36.1111H93.4472ZM106.399 36.4996C108.399 36.4996 110.207 36.1298 111.825 35.3902C113.442 34.6506 114.788 33.63 115.861 32.3283C116.934 31.0266 117.677 29.5622 118.088 27.9351H110.06C109.325 29.5326 108.017 30.3314 106.135 30.3314C104.87 30.3314 103.804 29.9246 102.937 29.111C102.069 28.2975 101.577 27.1215 101.459 25.5832H118.529C118.618 24.814 118.662 24.0744 118.662 23.3644C118.662 20.8793 118.14 18.7049 117.096 16.8411C116.052 14.9774 114.604 13.5425 112.751 12.5367C110.899 11.5308 108.781 11.0279 106.399 11.0279C103.959 11.0279 101.797 11.5456 99.9152 12.5811C98.0332 13.6165 96.5702 15.0957 95.5263 17.0186C94.4824 18.9416 93.9604 21.19 93.9604 23.7638C93.9604 26.3376 94.4897 28.5859 95.5484 30.5089C96.607 32.4318 98.0773 33.911 99.9593 34.9465C101.841 35.9819 103.988 36.4996 106.399 36.4996ZM110.943 21.3675H101.503C101.709 20.0066 102.246 18.9564 103.113 18.2168C103.981 17.4772 105.047 17.1074 106.311 17.1074C107.634 17.1074 108.737 17.492 109.619 18.2612C110.502 19.0303 110.943 20.0658 110.943 21.3675ZM138.224 36.1446V29.8876H127.55L138.004 17.418V11.3829H119.213V17.6399H129.358L119.125 30.1095V36.1446H138.224ZM150.372 36.1446V17.6843H154.43V11.3829H150.372V11.161C150.372 9.85935 150.666 8.95705 151.254 8.45412C151.842 7.9512 152.857 7.74411 154.298 7.83286V1.39837C154.033 1.36879 153.621 1.354 153.063 1.354C149.71 1.354 147.167 2.14537 145.432 3.7281C143.697 5.31084 142.829 7.62577 142.829 10.6729V11.3829H140.094V17.6843H142.829V36.1446H150.372ZM160.255 8.80913C161.549 8.80913 162.615 8.41714 163.453 7.63317C164.291 6.8492 164.71 5.88033 164.71 4.72656C164.71 3.5432 164.291 2.55954 163.453 1.77557C162.615 0.991595 161.549 0.599609 160.255 0.599609C158.932 0.599609 157.851 0.991595 157.013 1.77557C156.175 2.55954 155.756 3.5432 155.756 4.72656C155.756 5.88033 156.175 6.8492 157.013 7.63317C157.851 8.41714 158.932 8.80913 160.255 8.80913ZM164.004 36.1446V11.3829H156.461V36.1446H164.004ZM174.041 36.1446V22.6987C174.041 21.042 174.468 19.7552 175.32 18.8381C176.173 17.921 177.32 17.4624 178.761 17.4624C180.202 17.4624 181.349 17.921 182.202 18.8381C183.054 19.7552 183.481 21.042 183.481 22.6987V36.1446H190.979V21.6781C190.979 18.3943 190.119 15.8131 188.399 13.9345C186.679 12.056 184.378 11.1167 181.496 11.1167C179.878 11.1167 178.423 11.4347 177.129 12.0707C175.835 12.7068 174.806 13.5721 174.041 14.6667V11.3829H166.498V36.1446H174.041Z" fill="black" fill-opacity="0.87"/>
<path d="M28.3428 27.9048L32.1402 27.9147C32.1402 32.5674 28.3962 36.3391 23.7777 36.3391H23.0245C27.7173 34.4302 28.3087 29.8278 28.3428 27.9048ZM24.3321 27.8944L24.4818 27.8949C24.4779 28.5688 24.3928 29.6366 23.987 30.7213C24.0564 30.387 24.1172 30.0099 24.1711 29.5833C24.2127 29.2539 24.2663 28.691 24.3321 27.8944ZM21.6744 17.5938L41.6474 17.6021C41.6474 22.2556 37.9043 26.0289 33.2848 26.032L28.2124 26.0353C27.4753 21.3171 23.5943 18.6344 21.6744 17.5938ZM47.9708 7.28955C47.9708 11.9431 44.2276 15.7164 39.6082 15.7195L20.582 15.7318L28.1119 8.42204V7.49612C28.1119 7.41643 28.0735 7.34147 28.0151 7.28986L47.9708 7.28955Z" fill="black" fill-opacity="0.87"/>
<path d="M28.3428 27.9048L32.1402 27.9147C32.1402 32.5674 28.3962 36.3391 23.7777 36.3391H23.0245C27.7173 34.4302 28.3087 29.8278 28.3428 27.9048ZM24.3321 27.8944L24.4818 27.8949C24.4779 28.5688 24.3928 29.6366 23.987 30.7213C24.0564 30.387 24.1172 30.0099 24.1711 29.5833C24.2127 29.2539 24.2663 28.691 24.3321 27.8944ZM21.6744 17.5938L41.6474 17.6021C41.6474 22.2556 37.9043 26.0289 33.2848 26.032L28.2124 26.0353C27.4753 21.3171 23.5943 18.6344 21.6744 17.5938ZM47.9708 7.28955C47.9708 11.9431 44.2276 15.7164 39.6082 15.7195L20.582 15.7318L28.1119 8.42204V7.49612C28.1119 7.41643 28.0735 7.34147 28.0151 7.28986L47.9708 7.28955Z" fill="black" fill-opacity="0.87"/>
<path d="M25.7479 27.0374C25.377 20.4261 17.1211 17.4209 16.3309 17.1123C16.2987 17.0961 16.2987 17.0636 16.3149 17.0311L24.8288 8.42184V7.49591C24.8288 7.34971 24.6998 7.21973 24.5547 7.21973H8.86513V2.03794V0.478516L3.07631 1.69681V2.57399H3.39881C3.39881 2.57399 4.8178 2.57399 4.8178 4.00346V7.20352H0.335077C0.254452 7.20352 0.173828 7.28476 0.173828 7.36593V9.39649H4.83392C4.83392 9.39649 4.83392 11.5569 4.83392 14.0747V20.4261C4.83392 23.886 7.04303 26.2902 10.913 25.9653C11.7354 25.9003 12.4932 25.5755 13.1382 25.1531C13.4285 24.9582 13.6059 24.6495 13.6059 24.2922V23.2039C12.3481 24.0485 11.2838 23.9998 11.2838 23.9998C8.83292 23.9998 8.88127 20.8647 8.88127 20.8647V9.39649H20.1687L12.0418 17.6484C12.0256 18.7367 12.0095 19.5814 12.0095 19.5976C12.0095 19.6301 12.0256 19.6464 12.0579 19.6464C19.5076 20.9134 21.5232 25.7704 21.5232 27.1836C21.5232 27.1836 22.3294 34.0548 15.5086 34.5258C15.5086 34.5258 11.042 34.7208 10.2519 32.9177C10.2196 32.8527 10.2519 32.7878 10.3164 32.7552C11.0581 32.4141 11.558 31.7482 11.558 30.8547C11.558 29.5227 10.7517 28.4344 9.05866 28.4344C7.68803 28.4344 6.55928 29.5227 6.55928 30.8547C6.55928 30.8547 5.91429 36.6376 15.4925 36.4752C26.4251 36.2802 25.7479 27.0374 25.7479 27.0374Z" fill="black" fill-opacity="0.87"/>
<path d="M25.7479 27.0374C25.377 20.4261 17.1211 17.4209 16.3309 17.1123C16.2987 17.0961 16.2987 17.0636 16.3149 17.0311L24.8288 8.42184V7.49591C24.8288 7.34971 24.6998 7.21973 24.5547 7.21973H8.86513V2.03794V0.478516L3.07631 1.69681V2.57399H3.39881C3.39881 2.57399 4.8178 2.57399 4.8178 4.00346V7.20352H0.335077C0.254452 7.20352 0.173828 7.28476 0.173828 7.36593V9.39649H4.83392C4.83392 9.39649 4.83392 11.5569 4.83392 14.0747V20.4261C4.83392 23.886 7.04303 26.2902 10.913 25.9653C11.7354 25.9003 12.4932 25.5755 13.1382 25.1531C13.4285 24.9582 13.6059 24.6495 13.6059 24.2922V23.2039C12.3481 24.0485 11.2838 23.9998 11.2838 23.9998C8.83292 23.9998 8.88127 20.8647 8.88127 20.8647V9.39649H20.1687L12.0418 17.6484C12.0256 18.7367 12.0095 19.5814 12.0095 19.5976C12.0095 19.6301 12.0256 19.6464 12.0579 19.6464C19.5076 20.9134 21.5232 25.7704 21.5232 27.1836C21.5232 27.1836 22.3294 34.0548 15.5086 34.5258C15.5086 34.5258 11.042 34.7208 10.2519 32.9177C10.2196 32.8527 10.2519 32.7878 10.3164 32.7552C11.0581 32.4141 11.558 31.7482 11.558 30.8547C11.558 29.5227 10.7517 28.4344 9.05866 28.4344C7.68803 28.4344 6.55928 29.5227 6.55928 30.8547C6.55928 30.8547 5.91429 36.6376 15.4925 36.4752C26.4251 36.2802 25.7479 27.0374 25.7479 27.0374Z" fill="black" fill-opacity="0.87"/>
</svg>
