<?xml version="1.0" encoding="UTF-8"?>
<svg width="148px" height="148px" viewBox="0 0 148 148" version="1.1" xmlns="http://www.w3.org/2000/svg" xmlns:xlink="http://www.w3.org/1999/xlink">
    <title>Artboard Copy 20</title>
    <g id="Artboard-Copy-20" stroke="none" stroke-width="1" fill="none" fill-rule="evenodd">
        <g id="Group">
            <circle id="Oval" stroke="#4261FF" stroke-width="7" fill="#FFFFFF" cx="74" cy="74" r="70.5"></circle>
            <path d="M107.880373,94.7937001 C106.935967,78.081812 85.9126581,70.4854992 83.9006617,69.7053374 C83.8185394,69.6642762 83.8185394,69.5821539 83.8596006,69.5000316 L105.539888,47.7376221 L105.539888,45.3971365 C105.527569,45.0152678 105.223717,44.7114153 104.841848,44.699097 L64.8893492,44.699097 L64.8893492,31.6005901 L64.8893492,27.6587197 L50.1483963,30.7383059 L50.1483963,32.955608 L50.9696193,32.955608 C50.9696193,32.955608 54.5830005,32.955608 54.5830005,36.5689892 L54.5830005,44.6580358 L43.1680008,44.6580358 C42.9462706,44.6744603 42.7738137,44.8469171 42.7573893,45.0686473 L42.7573893,50.2012911 L54.6240617,50.2012911 L54.6240617,78.081812 C54.6240617,86.827837 60.2494392,92.9048872 70.1041153,92.0836642 C72.1325361,91.8824646 74.0829407,91.1762128 75.770554,90.0306067 C76.5137608,89.5542974 76.9613273,88.7371805 76.9613273,87.8543657 L76.9613273,85.1032687 C73.7585576,87.2384485 71.0485217,87.115265 71.0485217,87.115265 C64.8072269,87.115265 64.9304104,79.1904631 64.9304104,79.1904631 L64.9304104,50.2012911 L93.6732154,50.2012911 L72.9783958,71.0603553 C72.9373346,73.8114524 72.8962735,75.9466322 72.8962735,75.9876934 C72.8880612,76.0492851 72.9332285,76.1026646 72.9948202,76.1108768 C73.0030325,76.1108768 73.0112447,76.1108768 73.0194569,76.1108768 C91.9897083,79.3136465 97.122352,91.5909304 97.122352,95.1632505 C97.122352,95.1632505 99.1754096,112.532117 81.8065431,113.72289 C81.8065431,113.72289 70.4326045,114.215624 68.4206081,109.657836 C68.346698,109.510016 68.4123959,109.329347 68.560216,109.259543 C68.5684283,109.255437 68.5766405,109.251331 68.5848527,109.247225 C70.5188329,108.43832 71.771198,106.541295 71.7465613,104.44307 C71.7465613,101.076056 69.6935038,98.324959 65.382083,98.324959 C61.8918852,98.324959 59.0176047,101.076056 59.0176047,104.44307 C59.0176047,104.44307 57.3751587,119.06084 81.7654819,118.650228 C109.604942,118.157495 107.880373,94.7937001 107.880373,94.7937001 Z" id="s" fill="#4261FF"></path>
            <path d="M36.1933598,113.19072 L36.1933598,107.105585 L33.728495,107.105585 C32.2906571,107.105585 31.3149815,106.527882 30.8014679,105.372476 C30.2879544,104.217071 30.0311977,102.74072 30.0311977,100.943422 L30.0311977,100.943422 L30.0311977,88.0028818 C30.0311977,86.4623413 29.8771436,85.140044 29.5690355,84.0359899 C29.2609274,82.9319359 28.8629544,82.0332872 28.3751166,81.340044 C27.8872787,80.6468007 27.3609274,80.1204494 26.7960625,79.7609899 C26.2311977,79.4015305 25.6920085,79.1704494 25.178495,79.0677467 L25.178495,79.0677467 L25.178495,78.9136926 C25.6920085,78.8109899 26.2311977,78.5799088 26.7960625,78.2204494 C27.3609274,77.8609899 27.8872787,77.3346386 28.3751166,76.6413953 C28.8629544,75.9481521 29.2609274,75.0495034 29.5690355,73.9454494 C29.8771436,72.8413953 30.0311977,71.519098 30.0311977,69.9785575 L30.0311977,69.9785575 L30.0311977,57.038017 C30.0311977,55.2407197 30.2879544,53.7643683 30.8014679,52.6089629 C31.3149815,51.4535575 32.2906571,50.8758548 33.728495,50.8758548 L33.728495,50.8758548 L36.1933598,50.8758548 L36.1933598,44.7907197 L31.7257923,44.7907197 C28.6447112,44.7907197 26.4494409,45.8434224 25.1399815,47.9488278 C23.830522,50.0542332 23.1757923,52.8785575 23.1757923,56.4218007 L23.1757923,56.4218007 L23.1757923,68.7461251 C23.1757923,70.1326116 23.0730896,71.2751791 22.8676842,72.1738278 C22.6622787,73.0724764 22.3798463,73.7785575 22.0203869,74.292071 C21.6609274,74.8055845 21.2372787,75.165044 20.7494409,75.3704494 C20.2616031,75.5758548 19.709576,75.6785575 19.0933598,75.6785575 L19.0933598,75.6785575 L19.0933598,82.3028818 C19.709576,82.3028818 20.2616031,82.4055845 20.7494409,82.6109899 C21.2372787,82.8163953 21.6609274,83.1758548 22.0203869,83.6893683 C22.3798463,84.2028818 22.6622787,84.9089629 22.8676842,85.8076116 C23.0730896,86.7062602 23.1757923,87.8488278 23.1757923,89.2353143 L23.1757923,89.2353143 L23.1757923,101.559639 C23.1757923,105.102882 23.830522,107.927206 25.1399815,110.032612 C26.4494409,112.138017 28.6447112,113.19072 31.7257923,113.19072 L31.7257923,113.19072 L36.1933598,113.19072 Z" id="{" fill="#4261FF" fill-rule="nonzero"></path>
            <path d="M130.19336,113.19072 L130.19336,107.105585 L127.728495,107.105585 C126.290657,107.105585 125.314981,106.527882 124.801468,105.372476 C124.287954,104.217071 124.031198,102.74072 124.031198,100.943422 L124.031198,88.0028818 C124.031198,86.4623413 123.877144,85.140044 123.569036,84.0359899 C123.260927,82.9319359 122.862954,82.0332872 122.375117,81.340044 C121.887279,80.6468007 121.360927,80.1204494 120.796063,79.7609899 C120.231198,79.4015305 119.692008,79.1704494 119.178495,79.0677467 L119.178495,78.9136926 C119.692008,78.8109899 120.231198,78.5799088 120.796063,78.2204494 C121.360927,77.8609899 121.887279,77.3346386 122.375117,76.6413953 C122.862954,75.9481521 123.260927,75.0495034 123.569036,73.9454494 C123.877144,72.8413953 124.031198,71.519098 124.031198,69.9785575 L124.031198,57.038017 C124.031198,55.2407197 124.287954,53.7643683 124.801468,52.6089629 C125.314981,51.4535575 126.290657,50.8758548 127.728495,50.8758548 L130.19336,50.8758548 L130.19336,44.7907197 L125.725792,44.7907197 C122.644711,44.7907197 120.449441,45.8434224 119.139981,47.9488278 C117.830522,50.0542332 117.175792,52.8785575 117.175792,56.4218007 L117.175792,68.7461251 C117.175792,70.1326116 117.07309,71.2751791 116.867684,72.1738278 C116.662279,73.0724764 116.379846,73.7785575 116.020387,74.292071 C115.660927,74.8055845 115.237279,75.165044 114.749441,75.3704494 C114.261603,75.5758548 113.709576,75.6785575 113.09336,75.6785575 L113.09336,82.3028818 C113.709576,82.3028818 114.261603,82.4055845 114.749441,82.6109899 C115.237279,82.8163953 115.660927,83.1758548 116.020387,83.6893683 C116.379846,84.2028818 116.662279,84.9089629 116.867684,85.8076116 C117.07309,86.7062602 117.175792,87.8488278 117.175792,89.2353143 L117.175792,101.559639 C117.175792,105.102882 117.830522,107.927206 119.139981,110.032612 C120.449441,112.138017 122.644711,113.19072 125.725792,113.19072 L130.19336,113.19072 Z" id="{" fill="#4261FF" fill-rule="nonzero" transform="translate(121.643360, 78.990720) scale(-1, 1) translate(-121.643360, -78.990720) "></path>
        </g>
    </g>
</svg>