<?xml version="1.0" encoding="UTF-8"?>
<svg width="32px" height="32px" viewBox="0 0 32 32" version="1.1" xmlns="http://www.w3.org/2000/svg" xmlns:xlink="http://www.w3.org/1999/xlink">
    <title>XTZ.e6d31ff6a59ad3bc98d68fe7c064a5eb</title>
    <g id="Page-1" stroke="none" stroke-width="1" fill="none" fill-rule="evenodd">
        <g id="XTZ.e6d31ff6a59ad3bc98d68fe7c064a5eb" fill-rule="nonzero">
            <path d="M16,32 C24.8366,32 32,24.8366 32,16 C32,7.16344 24.8366,0 16,0 C7.16344,0 0,7.16344 0,16 C0,24.8366 7.16344,32 16,32 Z" id="Path" fill="#0F61FF"></path>
            <path d="M23.6298145,21.0711443 C23.4084498,17.1539512 18.4806786,15.3734089 18.0090755,15.1905424 C17.9898264,15.1809178 17.9898264,15.1616687 17.9994509,15.1424196 L23.081215,10.0414065 L23.081215,9.49280694 C23.0783276,9.4032986 23.0071059,9.3320769 22.9175976,9.32918954 L13.5529074,9.32918954 L13.5529074,6.2589571 L13.5529074,6.2589571 L13.5529074,5.335 L10.0976928,6.05684148 L10.0976928,6.57656735 L10.2901839,6.57656735 C10.2901839,6.57656735 11.1371446,6.57656735 11.1371446,7.42352802 L11.1371446,9.31956498 L8.46151881,9.31956498 C8.40954622,9.3234148 8.3691231,9.36383793 8.36527328,9.41581051 L8.36527328,10.6188797 L11.1467691,10.6188797 L11.1467691,17.1539512 C11.1467691,19.203981 12.4653329,20.6284149 14.7752256,20.4359238 C15.2506786,20.3887635 15.7078448,20.2232212 16.103414,19.9546962 C16.2776184,19.8430513 16.382526,19.6515227 16.382526,19.4445948 L16.382526,18.7997498 C15.6318109,19.3002265 14.9965904,19.2713529 14.9965904,19.2713529 C13.5336583,19.2713529 13.562532,17.4138141 13.562532,17.4138141 L13.562532,10.6188797 L20.2997191,10.6188797 L15.4489444,15.5081526 C15.4393198,16.1529977 15.4296953,16.6534744 15.4296953,16.663099 C15.4277703,16.6775358 15.4383574,16.6900477 15.4527942,16.6919727 C15.4547191,16.6919727 15.456644,16.6919727 15.4585689,16.6919727 C19.9051124,17.4426878 21.1081816,20.3204292 21.1081816,21.1577653 C21.1081816,21.1577653 21.5894092,25.2289513 17.5182233,25.5080633 C17.5182233,25.5080633 14.8522221,25.6235579 14.380619,24.5552325 C14.3632948,24.5205842 14.3786941,24.4782361 14.4133424,24.4618744 C14.4152674,24.4609119 14.4171923,24.4599495 14.4191172,24.458987 C14.8724336,24.2693833 15.1659825,23.824729 15.1602078,23.3329143 C15.1602078,22.5437009 14.6789801,21.8988559 13.668402,21.8988559 C12.850315,21.8988559 12.1765963,22.5437009 12.1765963,23.3329143 C12.1765963,23.3329143 11.7916142,26.7592552 17.5085987,26.6630097 C24.0340457,26.547515 23.6298145,21.0711443 23.6298145,21.0711443 Z" id="s" fill="#F6F8FA"></path>
        </g>
    </g>
</svg>