<svg width="32" height="32" viewBox="0 0 32 32" fill="none" xmlns="http://www.w3.org/2000/svg">
<path d="M16 32C24.8366 32 32 24.8366 32 16C32 7.16344 24.8366 0 16 0C7.16344 0 0 7.16344 0 16C0 24.8366 7.16344 32 16 32Z" fill="#3391F6"/>
<path fill-rule="evenodd" clip-rule="evenodd" d="M18.5038 26.6673C16.9206 26.6673 15.7666 26.3087 15.0419 25.5686C14.3173 24.8285 13.9667 24.0541 13.9667 23.1995C13.9667 22.8981 14.0258 22.6311 14.1637 22.4213C14.2818 22.2114 14.4551 22.0436 14.6718 21.9291C14.8883 21.8146 15.1601 21.7384 15.4752 21.7384C15.7902 21.7384 16.062 21.7956 16.2786 21.9291C16.4952 22.0436 16.6685 22.2114 16.7866 22.4213C16.9048 22.6311 16.9836 22.8943 16.9836 23.1995C16.9836 23.5772 16.8851 23.8824 16.7079 24.1074C16.5306 24.3364 16.2983 24.5042 16.0423 24.5805C16.259 24.8628 16.6094 25.0726 17.0781 25.2062C17.5468 25.3397 18.0154 25.397 18.4881 25.397C19.1537 25.397 19.7405 25.2253 20.2682 24.8857C20.796 24.5462 21.1859 24.035 21.4419 23.3712C21.6979 22.7074 21.8122 21.952 21.8122 21.0974C21.8122 20.1704 21.6743 19.3922 21.4026 18.7474C21.1269 18.0836 20.737 17.5915 20.2092 17.2901C19.6814 16.9697 19.1143 16.817 18.4881 16.817C18.0785 16.817 17.5901 16.9887 16.9836 17.3092L15.8808 17.8204V17.2901L20.8669 10.8504H13.9667V17.5381C13.9667 18.0874 14.0849 18.5414 14.337 18.9038C14.593 19.2625 14.9829 19.4342 15.491 19.4342C15.9006 19.4342 16.2746 19.3006 16.6449 19.0374C17.0151 18.7703 17.3302 18.4498 17.6019 18.0913C17.6413 18.015 17.6807 17.9578 17.7201 17.9386C17.7792 17.9005 17.8186 17.8814 17.8776 17.8814C17.9761 17.8814 18.0746 17.9196 18.2085 18.015C18.3266 18.1485 18.3857 18.2973 18.3857 18.469C18.3857 18.5452 18.3463 18.6597 18.3266 18.8085C18.0509 19.4341 17.661 19.9072 17.153 20.2276C16.6449 20.5481 16.0974 20.7198 15.491 20.7198C13.9864 20.7198 12.9664 20.4374 12.3795 19.869C11.8124 19.3006 11.521 18.5223 11.521 17.5571V10.8504H8V9.59913H11.5406V6.75697L10.7372 5.97871V5.33398H13.0846L13.9628 5.7689V9.58009L23.0961 9.56097L23.994 10.4308L18.4054 15.871C18.7362 15.7374 19.0906 15.6611 19.4609 15.623C20.0674 15.623 20.7527 15.8137 21.4931 16.1914C22.2572 16.55 22.844 17.0612 23.2536 17.7059C23.6632 18.3506 23.9389 18.9573 24.057 19.5447C24.1752 20.1322 24.254 20.6434 24.254 21.1166C24.254 22.158 24.0177 23.1232 23.5686 24.0159C23.1197 24.9048 22.4344 25.5877 21.497 26.0226C20.5754 26.4575 19.579 26.6673 18.5038 26.6673Z" fill="white"/>
</svg>
