<?xml version="1.0" encoding="UTF-8" standalone="no"?><svg xmlns="http://www.w3.org/2000/svg" xmlns:xlink="http://www.w3.org/1999/xlink" contentScriptType="application/ecmascript" contentStyleType="text/css" height="632px" preserveAspectRatio="none" style="width:893px;height:632px;" version="1.1" viewBox="0 0 893 632" width="893px" zoomAndPan="magnify"><defs><filter height="300%" id="fbauxmgqxascm" width="300%" x="-1" y="-1"><feGaussianBlur result="blurOut" stdDeviation="2.0"/><feColorMatrix in="blurOut" result="blurOut2" type="matrix" values="0 0 0 0 0 0 0 0 0 0 0 0 0 0 0 0 0 0 .4 0"/><feOffset dx="4.0" dy="4.0" in="blurOut2" result="blurOut3"/><feBlend in="SourceGraphic" in2="blurOut3" mode="normal"/></filter></defs><g><line style="stroke:#A80036;stroke-width:1.0;stroke-dasharray:5.0,5.0;" x1="23" x2="23" y1="88.4883" y2="547.9043"/><line style="stroke:#A80036;stroke-width:1.0;stroke-dasharray:5.0,5.0;" x1="130" x2="130" y1="88.4883" y2="547.9043"/><line style="stroke:#A80036;stroke-width:1.0;stroke-dasharray:5.0,5.0;" x1="709" x2="709" y1="88.4883" y2="547.9043"/><text fill="#000000" font-family="sans-serif" font-size="14" lengthAdjust="spacing" textLength="31" x="5" y="85.5352">User</text><ellipse cx="23.5" cy="15" fill="#FEFECE" filter="url(#fbauxmgqxascm)" rx="8" ry="8" style="stroke:#A80036;stroke-width:2.0;"/><path d="M23.5,23 L23.5,50 M10.5,31 L36.5,31 M23.5,50 L10.5,65 M23.5,50 L36.5,65 " fill="none" filter="url(#fbauxmgqxascm)" style="stroke:#A80036;stroke-width:2.0;"/><text fill="#000000" font-family="sans-serif" font-size="14" lengthAdjust="spacing" textLength="31" x="5" y="560.4395">User</text><ellipse cx="23.5" cy="573.3926" fill="#FEFECE" filter="url(#fbauxmgqxascm)" rx="8" ry="8" style="stroke:#A80036;stroke-width:2.0;"/><path d="M23.5,581.3926 L23.5,608.3926 M10.5,589.3926 L36.5,589.3926 M23.5,608.3926 L10.5,623.3926 M23.5,608.3926 L36.5,623.3926 " fill="none" filter="url(#fbauxmgqxascm)" style="stroke:#A80036;stroke-width:2.0;"/><rect fill="#FEFECE" filter="url(#fbauxmgqxascm)" height="30.4883" style="stroke:#A80036;stroke-width:1.5;" width="67" x="95" y="53"/><text fill="#000000" font-family="sans-serif" font-size="14" lengthAdjust="spacing" textLength="53" x="102" y="73.5352">CToken</text><rect fill="#FEFECE" filter="url(#fbauxmgqxascm)" height="30.4883" style="stroke:#A80036;stroke-width:1.5;" width="67" x="95" y="546.9043"/><text fill="#000000" font-family="sans-serif" font-size="14" lengthAdjust="spacing" textLength="53" x="102" y="567.4395">CToken</text><rect fill="#FEFECE" filter="url(#fbauxmgqxascm)" height="30.4883" style="stroke:#A80036;stroke-width:1.5;" width="97" x="659" y="53"/><text fill="#000000" font-family="sans-serif" font-size="14" lengthAdjust="spacing" textLength="83" x="666" y="73.5352">Comptroller</text><rect fill="#FEFECE" filter="url(#fbauxmgqxascm)" height="30.4883" style="stroke:#A80036;stroke-width:1.5;" width="97" x="659" y="546.9043"/><text fill="#000000" font-family="sans-serif" font-size="14" lengthAdjust="spacing" textLength="83" x="666" y="567.4395">Comptroller</text><polygon fill="#A80036" points="118.5,115.7988,128.5,119.7988,118.5,123.7988,122.5,119.7988" style="stroke:#A80036;stroke-width:1.0;"/><line style="stroke:#A80036;stroke-width:1.0;" x1="23.5" x2="124.5" y1="119.7988" y2="119.7988"/><text fill="#000000" font-family="sans-serif" font-size="13" lengthAdjust="spacing" textLength="83" x="30.5" y="115.0566">mint(params)</text><line style="stroke:#A80036;stroke-width:1.0;" x1="130.5" x2="172.5" y1="149.1094" y2="149.1094"/><line style="stroke:#A80036;stroke-width:1.0;" x1="172.5" x2="172.5" y1="149.1094" y2="162.1094"/><line style="stroke:#A80036;stroke-width:1.0;" x1="131.5" x2="172.5" y1="162.1094" y2="162.1094"/><polygon fill="#A80036" points="141.5,158.1094,131.5,162.1094,141.5,166.1094,137.5,162.1094" style="stroke:#A80036;stroke-width:1.0;"/><text fill="#000000" font-family="sans-serif" font-size="13" lengthAdjust="spacing" textLength="114" x="137.5" y="144.3672">verifyNotInternal()</text><line style="stroke:#A80036;stroke-width:1.0;" x1="130.5" x2="172.5" y1="191.4199" y2="191.4199"/><line style="stroke:#A80036;stroke-width:1.0;" x1="172.5" x2="172.5" y1="191.4199" y2="204.4199"/><line style="stroke:#A80036;stroke-width:1.0;" x1="131.5" x2="172.5" y1="204.4199" y2="204.4199"/><polygon fill="#A80036" points="141.5,200.4199,131.5,204.4199,141.5,208.4199,137.5,204.4199" style="stroke:#A80036;stroke-width:1.0;"/><text fill="#000000" font-family="sans-serif" font-size="13" lengthAdjust="spacing" textLength="386" x="137.5" y="186.6777">verifyMintAllowed(minter_: sp.sender, mintAmount_: params)</text><polygon fill="#A80036" points="697.5,229.7305,707.5,233.7305,697.5,237.7305,701.5,233.7305" style="stroke:#A80036;stroke-width:1.0;"/><line style="stroke:#A80036;stroke-width:1.0;" x1="130.5" x2="703.5" y1="233.7305" y2="233.7305"/><text fill="#000000" font-family="sans-serif" font-size="13" lengthAdjust="spacing" textLength="555" x="137.5" y="228.9883">mintAllowed(cToken = sp.self_address, minter = minter_, mintAmount = mintAmount_)</text><line style="stroke:#A80036;stroke-width:1.0;" x1="709.5" x2="751.5" y1="263.041" y2="263.041"/><line style="stroke:#A80036;stroke-width:1.0;" x1="751.5" x2="751.5" y1="263.041" y2="276.041"/><line style="stroke:#A80036;stroke-width:1.0;" x1="710.5" x2="751.5" y1="276.041" y2="276.041"/><polygon fill="#A80036" points="720.5,272.041,710.5,276.041,720.5,280.041,716.5,276.041" style="stroke:#A80036;stroke-width:1.0;"/><text fill="#000000" font-family="sans-serif" font-size="13" lengthAdjust="spacing" textLength="170" x="716.5" y="258.2988">verifyMarketListed(cToken)</text><line style="stroke:#A80036;stroke-width:1.0;" x1="709.5" x2="751.5" y1="305.3516" y2="305.3516"/><line style="stroke:#A80036;stroke-width:1.0;" x1="751.5" x2="751.5" y1="305.3516" y2="318.3516"/><line style="stroke:#A80036;stroke-width:1.0;" x1="710.5" x2="751.5" y1="318.3516" y2="318.3516"/><polygon fill="#A80036" points="720.5,314.3516,710.5,318.3516,720.5,322.3516,716.5,318.3516" style="stroke:#A80036;stroke-width:1.0;"/><text fill="#000000" font-family="sans-serif" font-size="13" lengthAdjust="spacing" textLength="165" x="716.5" y="300.6094">invalidateLiquidity(minter)</text><line style="stroke:#A80036;stroke-width:1.0;" x1="130.5" x2="172.5" y1="347.6621" y2="347.6621"/><line style="stroke:#A80036;stroke-width:1.0;" x1="172.5" x2="172.5" y1="347.6621" y2="360.6621"/><line style="stroke:#A80036;stroke-width:1.0;" x1="131.5" x2="172.5" y1="360.6621" y2="360.6621"/><polygon fill="#A80036" points="141.5,356.6621,131.5,360.6621,141.5,364.6621,137.5,360.6621" style="stroke:#A80036;stroke-width:1.0;"/><text fill="#000000" font-family="sans-serif" font-size="13" lengthAdjust="spacing" textLength="356" x="137.5" y="342.9199">mintInternal(minter = sp.sender, mintAmount = params)</text><line style="stroke:#A80036;stroke-width:1.0;" x1="130.5" x2="172.5" y1="389.9727" y2="389.9727"/><line style="stroke:#A80036;stroke-width:1.0;" x1="172.5" x2="172.5" y1="389.9727" y2="402.9727"/><line style="stroke:#A80036;stroke-width:1.0;" x1="131.5" x2="172.5" y1="402.9727" y2="402.9727"/><polygon fill="#A80036" points="141.5,398.9727,131.5,402.9727,141.5,406.9727,137.5,402.9727" style="stroke:#A80036;stroke-width:1.0;"/><text fill="#000000" font-family="sans-serif" font-size="13" lengthAdjust="spacing" textLength="260" x="137.5" y="385.2305">verifyAccruedInterestRelevance(borrower)</text><line style="stroke:#A80036;stroke-width:1.0;" x1="130.5" x2="172.5" y1="432.2832" y2="432.2832"/><line style="stroke:#A80036;stroke-width:1.0;" x1="172.5" x2="172.5" y1="432.2832" y2="445.2832"/><line style="stroke:#A80036;stroke-width:1.0;" x1="131.5" x2="172.5" y1="445.2832" y2="445.2832"/><polygon fill="#A80036" points="141.5,441.2832,131.5,445.2832,141.5,449.2832,137.5,445.2832" style="stroke:#A80036;stroke-width:1.0;"/><text fill="#000000" font-family="sans-serif" font-size="13" lengthAdjust="spacing" textLength="337" x="137.5" y="427.541">doTransferIn(from_ = minter, amount = mintAmount)</text><line style="stroke:#A80036;stroke-width:1.0;" x1="130.5" x2="172.5" y1="474.5938" y2="474.5938"/><line style="stroke:#A80036;stroke-width:1.0;" x1="172.5" x2="172.5" y1="474.5938" y2="487.5938"/><line style="stroke:#A80036;stroke-width:1.0;" x1="131.5" x2="172.5" y1="487.5938" y2="487.5938"/><polygon fill="#A80036" points="141.5,483.5938,131.5,487.5938,141.5,491.5938,137.5,487.5938" style="stroke:#A80036;stroke-width:1.0;"/><text fill="#000000" font-family="sans-serif" font-size="13" lengthAdjust="spacing" textLength="181" x="137.5" y="469.8516">getMintTokens(mintAmount)</text><line style="stroke:#A80036;stroke-width:1.0;" x1="130.5" x2="172.5" y1="516.9043" y2="516.9043"/><line style="stroke:#A80036;stroke-width:1.0;" x1="172.5" x2="172.5" y1="516.9043" y2="529.9043"/><line style="stroke:#A80036;stroke-width:1.0;" x1="131.5" x2="172.5" y1="529.9043" y2="529.9043"/><polygon fill="#A80036" points="141.5,525.9043,131.5,529.9043,141.5,533.9043,137.5,529.9043" style="stroke:#A80036;stroke-width:1.0;"/><text fill="#000000" font-family="sans-serif" font-size="13" lengthAdjust="spacing" textLength="168" x="137.5" y="512.1621">invalidateAccruedInterest()</text><!--MD5=[ab5b7cbc017661b9520752dc14c30e77]
@startuml mint
Actor User
participant CToken
participant Comptroller

User -> CToken : mint(params)
CToken -> CToken : verifyNotInternal()
CToken -> CToken : verifyMintAllowed(minter_: sp.sender, mintAmount_: params)
CToken -> Comptroller : mintAllowed(cToken = sp.self_address, minter = minter_, mintAmount = mintAmount_)
Comptroller -> Comptroller : verifyMarketListed(cToken)
Comptroller -> Comptroller : invalidateLiquidity(minter)
CToken -> CToken : mintInternal(minter = sp.sender, mintAmount = params)
CToken -> CToken : verifyAccruedInterestRelevance(borrower)
CToken -> CToken : doTransferIn(from_ = minter, amount = mintAmount)
CToken -> CToken : getMintTokens(mintAmount)
CToken -> CToken : invalidateAccruedInterest()
@enduml

PlantUML version 1.2021.00(Sun Jan 10 05:25:05 EST 2021)
(GPL source distribution)
Java Runtime: OpenJDK Runtime Environment
JVM: OpenJDK 64-Bit Server VM
Default Encoding: UTF-8
Language: en
Country: US
--></g></svg>