<svg width="62" height="47" viewBox="0 0 62 47" fill="none" xmlns="http://www.w3.org/2000/svg">
<path d="M36.4678 35.6321L41.3614 35.6448C41.3614 41.6405 36.5366 46.5009 30.5849 46.5009L29.6143 46.501C35.6617 44.0411 36.4238 38.1102 36.4678 35.6321ZM31.2993 35.6187L31.4923 35.6193C31.4872 36.4877 31.3776 37.8637 30.8547 39.2616C30.9441 38.8307 31.0224 38.3448 31.0919 37.7951C31.1455 37.3706 31.2146 36.6452 31.2993 35.6187ZM27.8745 22.3447L53.6129 22.3554C53.6129 28.3522 48.7893 33.2147 42.8364 33.2186L36.2997 33.2229C35.3499 27.1428 30.3486 23.6857 27.8745 22.3447ZM61.7616 9.06601C61.7616 15.0628 56.9379 19.9253 50.9851 19.9293L26.4668 19.9452L36.1702 10.5254V9.33223C36.1702 9.22946 36.1208 9.13293 36.0455 9.0664L61.7616 9.06601Z" fill="black"/>
<g filter="url(#filter0_i_2_748)">
<path d="M36.4678 35.6321L41.3614 35.6448C41.3614 41.6405 36.5366 46.5009 30.5849 46.5009L29.6143 46.501C35.6617 44.0411 36.4238 38.1102 36.4678 35.6321ZM31.2993 35.6187L31.4923 35.6193C31.4872 36.4877 31.3776 37.8637 30.8547 39.2616C30.9441 38.8307 31.0224 38.3448 31.0919 37.7951C31.1455 37.3706 31.2146 36.6452 31.2993 35.6187ZM27.8745 22.3447L53.6129 22.3554C53.6129 28.3522 48.7893 33.2147 42.8364 33.2186L36.2997 33.2229C35.3499 27.1428 30.3486 23.6857 27.8745 22.3447ZM61.7616 9.06601C61.7616 15.0628 56.9379 19.9253 50.9851 19.9293L26.4668 19.9452L36.1702 10.5254V9.33223C36.1702 9.22946 36.1208 9.13293 36.0455 9.0664L61.7616 9.06601Z" fill="black"/>
</g>
<path d="M33.124 34.5146C32.6461 25.9948 22.007 22.1222 20.9888 21.7245C20.9472 21.7036 20.9472 21.6617 20.968 21.6199L31.9396 10.5254V9.33222C31.9396 9.14382 31.7734 8.97636 31.5863 8.97636H11.3679V2.29875V0.289185L3.90804 1.85916V2.98953H4.32363C4.32363 2.98953 6.15222 2.98953 6.15222 4.83163V8.95542H0.37552C0.271622 8.95542 0.167725 9.06009 0.167725 9.16475V11.7814H6.173C6.173 11.7814 6.173 14.5655 6.173 17.8101V25.9948C6.173 30.4536 9.01979 33.5516 14.0069 33.133C15.0666 33.0492 16.0433 32.6306 16.8744 32.0863C17.2485 31.8351 17.4771 31.4374 17.4771 30.9769V29.5744C15.8563 30.6629 14.4848 30.6001 14.4848 30.6001C11.3263 30.6001 11.3887 26.56 11.3887 26.56V11.7814H25.9343L15.4614 22.4153C15.4407 23.8178 15.4199 24.9063 15.4199 24.9273C15.4199 24.9691 15.4407 24.9901 15.4822 24.9901C25.0824 26.6228 27.6798 32.8818 27.6798 34.7029C27.6798 34.7029 28.7188 43.5576 19.929 44.1646C19.929 44.1646 14.1731 44.4158 13.1549 42.0923C13.1134 42.0085 13.1549 41.9248 13.238 41.8829C14.1939 41.4434 14.8381 40.5851 14.8381 39.4338C14.8381 37.7173 13.7991 36.3148 11.6172 36.3148C9.85097 36.3148 8.39641 37.7173 8.39641 39.4338C8.39641 39.4338 7.56523 46.8859 19.9083 46.6766C33.9968 46.4254 33.124 34.5146 33.124 34.5146Z" fill="black"/>
<g filter="url(#filter1_i_2_748)">
<path d="M33.124 34.5146C32.6461 25.9948 22.007 22.1222 20.9888 21.7245C20.9472 21.7036 20.9472 21.6617 20.968 21.6199L31.9396 10.5254V9.33222C31.9396 9.14382 31.7734 8.97636 31.5863 8.97636H11.3679V2.29875V0.289185L3.90804 1.85916V2.98953H4.32363C4.32363 2.98953 6.15222 2.98953 6.15222 4.83163V8.95542H0.37552C0.271622 8.95542 0.167725 9.06009 0.167725 9.16475V11.7814H6.173C6.173 11.7814 6.173 14.5655 6.173 17.8101V25.9948C6.173 30.4536 9.01979 33.5516 14.0069 33.133C15.0666 33.0492 16.0433 32.6306 16.8744 32.0863C17.2485 31.8351 17.4771 31.4374 17.4771 30.9769V29.5744C15.8563 30.6629 14.4848 30.6001 14.4848 30.6001C11.3263 30.6001 11.3887 26.56 11.3887 26.56V11.7814H25.9343L15.4614 22.4153C15.4407 23.8178 15.4199 24.9063 15.4199 24.9273C15.4199 24.9691 15.4407 24.9901 15.4822 24.9901C25.0824 26.6228 27.6798 32.8818 27.6798 34.7029C27.6798 34.7029 28.7188 43.5576 19.929 44.1646C19.929 44.1646 14.1731 44.4158 13.1549 42.0923C13.1134 42.0085 13.1549 41.9248 13.238 41.8829C14.1939 41.4434 14.8381 40.5851 14.8381 39.4338C14.8381 37.7173 13.7991 36.3148 11.6172 36.3148C9.85097 36.3148 8.39641 37.7173 8.39641 39.4338C8.39641 39.4338 7.56523 46.8859 19.9083 46.6766C33.9968 46.4254 33.124 34.5146 33.124 34.5146Z" fill="black"/>
</g>
<defs>
<filter id="filter0_i_2_748" x="26.4668" y="9.06601" width="35.2949" height="38.435" filterUnits="userSpaceOnUse" color-interpolation-filters="sRGB">
<feFlood flood-opacity="0" result="BackgroundImageFix"/>
<feBlend mode="normal" in="SourceGraphic" in2="BackgroundImageFix" result="shape"/>
<feColorMatrix in="SourceAlpha" type="matrix" values="0 0 0 0 0 0 0 0 0 0 0 0 0 0 0 0 0 0 127 0" result="hardAlpha"/>
<feOffset dy="1"/>
<feGaussianBlur stdDeviation="1.5"/>
<feComposite in2="hardAlpha" operator="arithmetic" k2="-1" k3="1"/>
<feColorMatrix type="matrix" values="0 0 0 0 0 0 0 0 0 0 0 0 0 0 0 0 0 0 0.24 0"/>
<feBlend mode="normal" in2="shape" result="effect1_innerShadow_2_748"/>
</filter>
<filter id="filter1_i_2_748" x="0.167725" y="0.289185" width="32.9668" height="47.3918" filterUnits="userSpaceOnUse" color-interpolation-filters="sRGB">
<feFlood flood-opacity="0" result="BackgroundImageFix"/>
<feBlend mode="normal" in="SourceGraphic" in2="BackgroundImageFix" result="shape"/>
<feColorMatrix in="SourceAlpha" type="matrix" values="0 0 0 0 0 0 0 0 0 0 0 0 0 0 0 0 0 0 127 0" result="hardAlpha"/>
<feOffset dy="1"/>
<feGaussianBlur stdDeviation="1.5"/>
<feComposite in2="hardAlpha" operator="arithmetic" k2="-1" k3="1"/>
<feColorMatrix type="matrix" values="0 0 0 0 0 0 0 0 0 0 0 0 0 0 0 0 0 0 0.24 0"/>
<feBlend mode="normal" in2="shape" result="effect1_innerShadow_2_748"/>
</filter>
</defs>
</svg>
