<svg width="56" height="56" viewBox="0 0 56 56" fill="none" xmlns="http://www.w3.org/2000/svg">
<rect width="56" height="56" rx="8" fill="#F6E8FC"/>
<path d="M37.9472 25.3333C37.8157 25.5277 37.7378 25.7534 37.7214 25.9875C37.705 26.2216 37.7507 26.4559 37.8539 26.6667C38.1848 27.439 38.4178 28.2498 38.5472 29.08C38.8905 31.2269 38.5695 33.4273 37.6272 35.3867C37.5128 35.6016 37.3417 35.7811 37.1325 35.9056C36.9233 36.0302 36.684 36.0951 36.4406 36.0933H19.5739C19.3291 36.0938 19.0888 36.0269 18.8795 35.8999C18.6702 35.7729 18.4999 35.5907 18.3872 35.3733C17.5337 33.6419 17.1661 31.7113 17.3235 29.7874C17.4809 27.8635 18.1574 26.0183 19.2809 24.4487C20.4045 22.879 21.9329 21.6436 23.7034 20.8743C25.4738 20.1049 27.4198 19.8304 29.3339 20.08C30.3024 20.1938 31.2497 20.4453 32.1472 20.8267C32.358 20.9298 32.5923 20.9755 32.8264 20.9591C33.0606 20.9428 33.2862 20.8649 33.4806 20.7333C33.6831 20.5999 33.8454 20.4138 33.95 20.195C34.0546 19.9763 34.0975 19.7331 34.0742 19.4917C34.0509 19.2503 33.9622 19.0199 33.8176 18.8252C33.6731 18.6305 33.4782 18.4789 33.2539 18.3867C30.6782 17.2822 27.8199 17.0175 25.0851 17.63C22.3503 18.2425 19.8781 19.7013 18.0196 21.7989C16.1611 23.8966 15.0108 26.5265 14.7321 29.3152C14.4534 32.1038 15.0606 34.9094 16.4672 37.3333C16.6999 37.7364 17.034 38.0715 17.4363 38.3054C17.8387 38.5393 18.2952 38.6639 18.7606 38.6667H37.2272C37.6971 38.6685 38.1592 38.5462 38.5666 38.3121C38.974 38.0779 39.3123 37.7403 39.5472 37.3333C40.5771 35.5486 41.1793 33.5494 41.3065 31.4928C41.4337 29.4362 41.0826 27.3781 40.2806 25.48C40.179 25.2637 40.0211 25.0786 39.8235 24.9442C39.6259 24.8098 39.3958 24.731 39.1573 24.716C38.9188 24.701 38.6806 24.7504 38.4678 24.859C38.2549 24.9676 38.0751 25.1314 37.9472 25.3333Z" fill="#CD78EE"/>
<path d="M26.1194 28.7869C25.619 29.2873 25.3379 29.9659 25.3379 30.6736C25.3379 31.024 25.4069 31.3709 25.541 31.6946C25.6751 32.0183 25.8716 32.3125 26.1194 32.5602C26.3671 32.808 26.6613 33.0045 26.985 33.1386C27.3087 33.2727 27.6557 33.3417 28.006 33.3417C28.7137 33.3417 29.3923 33.0606 29.8927 32.5602L37.4394 21.2402L26.1194 28.7869Z" fill="#CD78EE"/>
</svg>
