<svg width="56" height="56" viewBox="0 0 56 56" fill="none" xmlns="http://www.w3.org/2000/svg">
<rect width="56" height="56" rx="8" fill="#E9EEFC"/>
<path d="M25.9988 14C27.61 14.0001 29.2047 14.3246 30.6877 14.9542C32.1707 15.5839 33.5118 16.5057 34.6309 17.6648C35.75 18.8238 36.6243 20.1964 37.2015 21.7006C37.7788 23.2048 38.0472 24.8098 37.9908 26.42C37.3622 26.1472 36.6841 26.0069 35.9988 26.008V26C35.9982 23.9362 35.359 21.9232 34.169 20.2371C32.979 18.551 31.2965 17.2743 29.3522 16.5823C27.4079 15.8902 25.2972 15.8167 23.3094 16.3717C21.3217 16.9267 19.5544 18.0832 18.2499 19.6824C16.9454 21.2815 16.1677 23.2452 16.0233 25.3039C15.879 27.3626 16.3751 29.4155 17.4437 31.1811C18.5123 32.9467 20.101 34.3384 21.9918 35.1653C23.8827 35.9923 25.983 36.214 28.0048 35.8V37.832C26.3678 38.1088 24.6912 38.043 23.0809 37.6386C21.4706 37.2341 19.9618 36.5 18.6498 35.4825C17.3379 34.465 16.2513 33.1864 15.4589 31.7274C14.6665 30.2685 14.1854 28.6609 14.0462 27.0065C13.9069 25.3521 14.1125 23.6868 14.6499 22.1159C15.1873 20.545 16.0448 19.1027 17.1682 17.8802C18.2916 16.6578 19.6565 15.6817 21.1765 15.0138C22.6965 14.3459 24.3386 14.0007 25.9988 14ZM24.4988 28.084L30.2388 22.328C30.4149 22.1501 30.6512 22.0448 30.9012 22.0326C31.1511 22.0205 31.3965 22.1026 31.589 22.2626C31.7814 22.4226 31.9068 22.6489 31.9405 22.8969C31.9741 23.1449 31.9136 23.3965 31.7708 23.602L31.6548 23.742L25.2068 30.206C25.0414 30.3717 24.823 30.474 24.5899 30.4952C24.3567 30.5164 24.1235 30.4551 23.9308 30.322L23.7908 30.208L20.2908 26.708C20.1137 26.5316 20.009 26.2953 19.9974 26.0456C19.9859 25.7958 20.0683 25.5508 20.2284 25.3588C20.3885 25.1668 20.6147 25.0418 20.8625 25.0083C21.1102 24.9748 21.3615 25.0354 21.5668 25.178L21.7068 25.292L24.4988 28.084ZM32.9988 31.996C32.9528 31.996 32.9048 31.996 32.8588 32H31.9988C31.4684 32 30.9597 32.2107 30.5846 32.5858C30.2096 32.9609 29.9988 33.4696 29.9988 34V40C29.9988 40.5304 30.2096 41.0391 30.5846 41.4142C30.9597 41.7893 31.4684 42 31.9988 42H39.9988C40.5293 42 41.038 41.7893 41.4131 41.4142C41.7881 41.0391 41.9988 40.5304 41.9988 40V39L42.0048 34.996C42.0048 34.934 42.0028 34.87 41.9988 34.808V34C41.9988 33.4696 41.7881 32.9609 41.4131 32.5858C41.038 32.2107 40.5293 32 39.9988 32H39.1488C39.1009 31.9975 39.0529 31.9962 39.0048 31.996H38.9988V31.008C38.9988 30.2124 38.6828 29.4493 38.1202 28.8867C37.5576 28.3241 36.7945 28.008 35.9988 28.008C35.2032 28.008 34.4401 28.3241 33.8775 28.8867C33.3149 29.4493 32.9988 30.2124 32.9988 31.008V31.996ZM34.9988 31.008C34.9988 30.7428 35.1042 30.4884 35.2917 30.3009C35.4793 30.1134 35.7336 30.008 35.9988 30.008C36.2641 30.008 36.5184 30.1134 36.706 30.3009C36.8935 30.4884 36.9988 30.7428 36.9988 31.008V31.996H34.9988V31.008ZM35.9988 38C35.7336 38 35.4793 37.8946 35.2917 37.7071C35.1042 37.5196 34.9988 37.2652 34.9988 37C34.9988 36.7348 35.1042 36.4804 35.2917 36.2929C35.4793 36.1054 35.7336 36 35.9988 36C36.2641 36 36.5184 36.1054 36.706 36.2929C36.8935 36.4804 36.9988 36.7348 36.9988 37C36.9988 37.2652 36.8935 37.5196 36.706 37.7071C36.5184 37.8946 36.2641 38 35.9988 38Z" fill="#7899EE"/>
</svg>
