<svg width="32" height="32" viewBox="0 0 32 32" fill="none" xmlns="http://www.w3.org/2000/svg">
<circle cx="16" cy="16" r="16" fill="#1E1F32"/>
<path d="M21.741 13.4191C20.5707 12.8772 19.1136 12.7714 17.5189 13.0367C17.1641 13.0953 16.8126 13.1588 16.4712 13.2206C15.6124 13.3768 14.646 13.6502 13.7724 13.4761C13.5983 13.4419 13.4226 13.3833 13.295 13.2629C13.1358 13.1148 13.0728 12.8805 13.1143 12.6705C13.1971 12.2571 13.6182 12.0472 13.9763 11.8958C14.4852 11.681 15.0356 11.5622 15.5793 11.4727C16.7231 11.2823 17.9001 11.2205 19.0589 11.2709C19.4667 11.2888 19.8313 11.0203 19.9292 10.6313L20.8624 6.90286C20.9951 6.37557 20.5906 5.86454 20.0352 5.86129C16.3369 5.8385 12.5639 6.0696 10.0508 7.92326L11.0802 9.26915C12.9634 7.88094 15.9058 7.57986 18.9362 7.54569L18.4289 9.57348C16.7878 9.56371 13.2833 9.73297 11.9439 11.2758C11.4565 11.8373 11.2825 12.5273 11.44 13.2711C11.745 14.7097 12.9468 15.0075 13.4607 15.1345C14.2597 15.333 15.3737 15.1312 16.7811 14.8741C17.1144 14.8138 17.4558 14.7422 17.8023 14.6934C19.1865 14.5014 20.0485 14.5486 20.7895 14.8529C20.9486 14.3045 21.2885 13.7674 21.741 13.4191Z" fill="url(#paint0_linear)"/>
<path d="M19.0862 12.9368C19.5968 13.2576 19.7571 13.9435 19.4365 14.4352C19.4149 14.4684 19.3914 14.4987 19.3658 14.5294C19.7687 14.5737 20.2008 14.5889 20.8365 14.8066C21.2596 14.9518 21.722 15.2736 22.0935 15.4836L22.8988 14.2043C22.4302 13.9368 21.901 13.48 21.3451 13.2891C20.601 13.034 19.8552 12.9015 19.0469 12.9139C19.0601 12.9222 19.0743 12.9293 19.0862 12.9368Z" fill="url(#paint1_linear)"/>
<path d="M8.20695 13.4284C8.16716 13.4284 8.12572 13.4251 8.08593 13.4202C7.6168 13.3551 7.29189 12.9288 7.35819 12.4698C7.88535 8.80481 10.8427 7.40848 10.9687 7.34988C11.3981 7.15296 11.907 7.33524 12.1076 7.75511C12.3082 8.17499 12.1241 8.67299 11.6981 8.87154C11.5986 8.91874 9.44858 9.97169 9.05405 12.7041C8.99271 13.124 8.62635 13.4284 8.20695 13.4284Z" fill="url(#paint2_linear)"/>
<path d="M8.20695 13.4284C8.16716 13.4284 8.12572 13.4251 8.08593 13.4202C7.6168 13.3551 7.29189 12.9288 7.35819 12.4698C7.88535 8.80481 10.8427 7.40848 10.9687 7.34988C11.3981 7.15296 11.907 7.33524 12.1076 7.75511C12.3082 8.17499 12.1241 8.67299 11.6981 8.87154C11.5986 8.91874 9.44858 9.97169 9.05405 12.7041C8.99271 13.124 8.62635 13.4284 8.20695 13.4284Z" fill="url(#paint3_linear)"/>
<path d="M7.92977 24.4502L9.3322 20.3816C9.58604 19.7311 9.88256 19.7729 10.287 19.8787C10.7313 19.9943 11.0865 20.1539 10.8357 20.8828L9.43332 24.9514C9.16923 25.6914 8.88296 25.5601 8.47847 25.4543C8.0342 25.3371 7.71046 25.0777 7.92977 24.4502Z" fill="url(#paint4_linear)"/>
<path d="M13.8826 26.208C12.999 26.208 12.0923 26.1283 11.1722 25.9541C10.6666 25.8597 10.3616 25.3519 10.5174 24.8719L11.7674 21.0441C11.8983 20.6454 12.3078 20.4013 12.7288 20.4713C12.7471 20.4745 14.6203 20.7772 16.2565 20.3882C17.5926 20.0709 18.3021 19.7926 18.5159 19.2523C18.6453 18.9284 19.0282 18.7315 19.3796 18.7739C20.0212 18.8487 20.3129 19.5436 20.0576 20.0514C19.373 21.4135 17.9241 21.7227 16.6593 22.0238C15.363 22.3314 14.0003 22.2891 13.1847 22.2191L12.457 24.4471C17.3937 25.0053 21.4203 22.6064 22.5227 20.4957C23.2687 19.0668 23.0249 17.7843 22.6901 16.9592L22.6785 16.9283C22.6736 16.9137 22.0436 15.2472 20.7688 14.8468C20.3941 14.7297 20.1223 14.3927 20.1422 14.0054C20.1737 13.4294 20.7307 13.0745 21.2512 13.2324C23.2968 13.8509 24.1936 16.1032 24.2848 16.3473C24.9396 17.9682 24.8551 19.7145 24.0461 21.2638C22.6736 23.8905 18.6303 26.208 13.8826 26.208Z" fill="url(#paint5_linear)"/>
<path d="M18.9968 21.1744C18.3586 21.1744 17.8198 20.6455 17.8198 20.0189C17.8198 19.9766 17.8231 19.9359 17.8281 19.8936C17.4452 20.0824 16.9346 20.2305 16.2449 20.3948C15.7858 20.5039 15.3084 20.5592 14.8574 20.5804V22.2648C15.4277 22.2404 16.0443 22.1736 16.6478 22.0304C17.4551 21.8384 18.3354 21.6431 19.0449 21.1727C19.0283 21.1727 19.0117 21.1744 18.9968 21.1744Z" fill="url(#paint6_linear)"/>
<path d="M19.1089 17.1289C18.7542 16.9255 18.0397 16.7091 17.4827 16.7628V16.7595C16.7235 16.7726 15.9211 16.9076 15.2133 17.0281C14.8138 17.0947 14.4342 17.1582 14.1772 17.1794C13.5323 17.2282 11.3392 17.3064 10.197 16.242C8.65863 14.8065 8.82275 12.7186 9.48749 11.2409C9.67813 10.8161 9.48252 10.3197 9.04985 10.1309C8.61718 9.94216 8.10329 10.1358 7.91099 10.5606C7.00919 12.5607 6.83181 15.425 9.01503 17.4609C10.6247 18.9631 13.2522 18.937 14.3081 18.8557C14.6447 18.8296 15.0409 18.7629 15.5001 18.6864C16.1482 18.5774 16.8809 18.4358 17.5109 18.4244L17.6154 18.426C17.7529 18.4244 17.8905 18.4374 18.0231 18.4732C18.1607 18.5123 18.2883 18.5871 18.3729 18.6831C18.4641 18.7857 18.4922 18.9403 18.4906 19.1014C18.4807 19.2772 18.3812 19.6385 17.806 19.8988C17.4412 20.0648 17.2672 20.4798 17.3634 20.8639C17.496 21.388 18.0994 21.6613 18.595 21.4303C20.0688 20.7435 20.2064 19.5961 20.2064 19.5961C20.4367 18.1168 19.6112 17.417 19.1089 17.1289Z" fill="url(#paint7_linear)"/>
<defs>
<linearGradient id="paint0_linear" x1="15.8975" y1="14.1591" x2="15.8975" y2="5.78846" gradientUnits="userSpaceOnUse">
<stop stop-color="#A966E5"/>
<stop offset="1" stop-color="#7966E8"/>
</linearGradient>
<linearGradient id="paint1_linear" x1="19.3554" y1="14.4341" x2="22.0905" y2="15.8375" gradientUnits="userSpaceOnUse">
<stop stop-color="#A966E6"/>
<stop offset="1" stop-color="#3F2575"/>
</linearGradient>
<linearGradient id="paint2_linear" x1="9.76918" y1="7.27051" x2="9.76918" y2="13.4284" gradientUnits="userSpaceOnUse">
<stop offset="0.286458" stop-color="#6F6EBD"/>
<stop offset="1" stop-color="#1C1FEA"/>
</linearGradient>
<linearGradient id="paint3_linear" x1="9.76918" y1="7.27051" x2="9.76918" y2="13.4284" gradientUnits="userSpaceOnUse">
<stop offset="0.229167" stop-color="#8267E8"/>
<stop offset="1" stop-color="#2F3198"/>
</linearGradient>
<linearGradient id="paint4_linear" x1="9.96881" y1="20.4576" x2="8.25805" y2="27.147" gradientUnits="userSpaceOnUse">
<stop stop-color="#E374FF"/>
<stop offset="1" stop-color="#EE4A93"/>
</linearGradient>
<linearGradient id="paint5_linear" x1="18.7569" y1="14.4672" x2="11.1663" y2="22.9555" gradientUnits="userSpaceOnUse">
<stop stop-color="#7A3CFE"/>
<stop offset="1" stop-color="#FCA543"/>
</linearGradient>
<linearGradient id="paint6_linear" x1="19.4517" y1="20.6324" x2="14.662" y2="20.3037" gradientUnits="userSpaceOnUse">
<stop stop-color="#EFB253"/>
<stop offset="1" stop-color="#DB8185"/>
</linearGradient>
<linearGradient id="paint7_linear" x1="7.71504" y1="11.687" x2="18.2568" y2="21.2945" gradientUnits="userSpaceOnUse">
<stop stop-color="#E89331"/>
<stop offset="1" stop-color="#EDB355"/>
</linearGradient>
</defs>
</svg>
