<svg width="92" height="92" viewBox="0 0 92 92" fill="none" xmlns="http://www.w3.org/2000/svg">
<g clip-path="url(#clip0)">
<path d="M65.5545 45.9999C65.5545 56.8001 56.7991 65.5554 45.9989 65.5554C35.1987 65.5554 26.4434 56.8001 26.4434 45.9999C26.4434 35.1997 35.1987 26.4443 45.9989 26.4443C56.7991 26.4443 65.5545 35.1997 65.5545 45.9999Z" fill="white" stroke="white" stroke-width="32"/>
<path fill-rule="evenodd" clip-rule="evenodd" d="M51.5626 69.7042C48.0442 69.7042 45.4799 68.9074 43.8694 67.2626C42.2591 65.618 41.4801 63.8971 41.4801 61.9981C41.4801 61.3282 41.6115 60.7348 41.9178 60.2687C42.1803 59.8023 42.5654 59.4294 43.0468 59.175C43.5281 58.9206 44.132 58.7511 44.8323 58.7511C45.5323 58.7511 46.1363 58.8783 46.6177 59.175C47.0989 59.4294 47.484 59.8023 47.7466 60.2687C48.0091 60.7348 48.1843 61.3199 48.1843 61.9981C48.1843 62.8374 47.9654 63.5156 47.5716 64.0157C47.1777 64.5245 46.6614 64.8975 46.0925 65.0669C46.5739 65.6943 47.3528 66.1606 48.3942 66.4573C49.4358 66.754 50.4772 66.8813 51.5275 66.8813C53.0067 66.8813 54.3107 66.4998 55.4835 65.7451C56.6563 64.9906 57.5227 63.8546 58.0916 62.3796C58.6605 60.9044 58.9144 59.2258 58.9144 57.3268C58.9144 55.2667 58.6081 53.5373 58.0042 52.1046C57.3915 50.6294 56.5251 49.5359 55.3523 48.866C54.1795 48.154 52.9192 47.8148 51.5275 47.8148C50.6173 47.8148 49.532 48.1963 48.1843 48.9085L45.7336 50.0445V48.866L56.8138 34.5556H41.4801V49.4171C41.4801 50.6379 41.7427 51.6468 42.3028 52.4521C42.8717 53.2491 43.7382 53.6306 44.8673 53.6306C45.7775 53.6306 46.6088 53.3337 47.4315 52.7488C48.2543 52.1554 48.9544 51.4432 49.5583 50.6464C49.6458 50.4768 49.7334 50.3497 49.8209 50.3072C49.9523 50.2224 50.0397 50.1801 50.1709 50.1801C50.3898 50.1801 50.6086 50.2649 50.9062 50.4768C51.1688 50.7735 51.3 51.1042 51.3 51.4857C51.3 51.6551 51.2125 51.9095 51.1688 52.2402C50.556 53.6304 49.6897 54.6818 48.5606 55.3938C47.4315 56.106 46.215 56.4875 44.8673 56.4875C41.5238 56.4875 39.2571 55.8601 37.953 54.597C36.6927 53.3337 36.0451 51.6043 36.0451 49.4594V34.5556H28.2207V31.775H36.0888V25.4591L34.3034 23.7296V22.2969H39.5197L41.4714 23.2633V31.7327L61.7675 31.6902L63.7629 33.6231L51.3437 45.7124C52.079 45.4157 52.8666 45.2461 53.6893 45.1613C55.0371 45.1613 56.5601 45.5851 58.2054 46.4244C59.9034 47.2214 61.2074 48.3574 62.1176 49.7901C63.0278 51.2228 63.6404 52.5709 63.903 53.8763C64.1656 55.1819 64.3407 56.3179 64.3407 57.3693C64.3407 59.6836 63.8155 61.8285 62.8177 63.8123C61.82 65.7876 60.2971 67.3051 58.2141 68.2715C56.1661 69.2381 53.9519 69.7042 51.5626 69.7042Z" fill="black" fill-opacity="0.67"/>
</g>
<circle opacity="0.9" cx="45.9989" cy="45.9999" r="40.7056" stroke="url(#paint0_linear)" stroke-width="10.3"/>
<defs>
<linearGradient id="paint0_linear" x1="45.9989" y1="10.4443" x2="45.9989" y2="81.5554" gradientUnits="userSpaceOnUse">
<stop offset="0.0260417" stop-color="#05E3B2"/>
<stop offset="0.84375" stop-color="#7350BA"/>
<stop offset="0.979167" stop-color="#8C7BCC"/>
</linearGradient>
<clipPath id="clip0">
<rect width="71.1111" height="71.1111" fill="white" transform="translate(10.4434 10.4443)"/>
</clipPath>
</defs>
</svg>
