<svg width="62" height="48" viewBox="0 0 62 48" fill="none" xmlns="http://www.w3.org/2000/svg">
<path d="M36.4678 35.632L41.3614 35.6447C41.3614 41.6404 36.5366 46.5008 30.5849 46.5008L29.6143 46.5009C35.6617 44.041 36.4238 38.1101 36.4678 35.632ZM31.2993 35.6186L31.4923 35.6192C31.4872 36.4876 31.3776 37.8636 30.8547 39.2615C30.9441 38.8306 31.0224 38.3447 31.0919 37.795C31.1455 37.3705 31.2146 36.6451 31.2993 35.6186ZM27.8745 22.3446L53.6129 22.3553C53.6129 28.3521 48.7893 33.2146 42.8364 33.2185L36.2997 33.2228C35.3499 27.1427 30.3486 23.6856 27.8745 22.3446ZM61.7616 9.06592C61.7616 15.0628 56.9379 19.9253 50.9851 19.9292L26.4668 19.9451L36.1702 10.5253V9.33214C36.1702 9.22937 36.1208 9.13284 36.0455 9.06631L61.7616 9.06592Z" fill="black"/>
<g filter="url(#filter0_i)">
<path d="M36.4678 35.632L41.3614 35.6447C41.3614 41.6404 36.5366 46.5008 30.5849 46.5008L29.6143 46.5009C35.6617 44.041 36.4238 38.1101 36.4678 35.632ZM31.2993 35.6186L31.4923 35.6192C31.4872 36.4876 31.3776 37.8636 30.8547 39.2615C30.9441 38.8306 31.0224 38.3447 31.0919 37.795C31.1455 37.3705 31.2146 36.6451 31.2993 35.6186ZM27.8745 22.3446L53.6129 22.3553C53.6129 28.3521 48.7893 33.2146 42.8364 33.2185L36.2997 33.2228C35.3499 27.1427 30.3486 23.6856 27.8745 22.3446ZM61.7616 9.06592C61.7616 15.0628 56.9379 19.9253 50.9851 19.9292L26.4668 19.9451L36.1702 10.5253V9.33214C36.1702 9.22937 36.1208 9.13284 36.0455 9.06631L61.7616 9.06592Z" fill="black"/>
</g>
<path d="M33.1243 34.5144C32.6463 25.9947 22.0072 22.1221 20.989 21.7244C20.9475 21.7035 20.9475 21.6616 20.9683 21.6197L31.9398 10.5253V9.3321C31.9398 9.1437 31.7736 8.97624 31.5866 8.97624H11.3681V2.29863V0.289062L3.90828 1.85903V2.98941H4.32387C4.32387 2.98941 6.15247 2.98941 6.15247 4.83151V8.9553H0.375764C0.271866 8.9553 0.167969 9.05997 0.167969 9.16463V11.7813H6.17325C6.17325 11.7813 6.17325 14.5653 6.17325 17.8099V25.9947C6.17325 30.4534 9.02004 33.5515 14.0071 33.1329C15.0669 33.0491 16.0435 32.6305 16.8747 32.0862C17.2487 31.835 17.4773 31.4373 17.4773 30.9768V29.5743C15.8565 30.6628 14.485 30.6 14.485 30.6C11.3266 30.6 11.3889 26.5599 11.3889 26.5599V11.7813H25.9346L15.4617 22.4152C15.4409 23.8177 15.4201 24.9062 15.4201 24.9271C15.4201 24.969 15.4409 24.9899 15.4825 24.9899C25.0826 26.6227 27.68 32.8817 27.68 34.7028C27.68 34.7028 28.719 43.5575 19.9293 44.1645C19.9293 44.1645 14.1734 44.4157 13.1552 42.0922C13.1136 42.0084 13.1552 41.9247 13.2383 41.8828C14.1941 41.4432 14.8383 40.585 14.8383 39.4337C14.8383 37.7172 13.7993 36.3147 11.6175 36.3147C9.85122 36.3147 8.39665 37.7172 8.39665 39.4337C8.39665 39.4337 7.56547 46.8858 19.9085 46.6765C33.997 46.4253 33.1243 34.5144 33.1243 34.5144Z" fill="black"/>
<g filter="url(#filter1_i)">
<path d="M33.1243 34.5144C32.6463 25.9947 22.0072 22.1221 20.989 21.7244C20.9475 21.7035 20.9475 21.6616 20.9683 21.6197L31.9398 10.5253V9.3321C31.9398 9.1437 31.7736 8.97624 31.5866 8.97624H11.3681V2.29863V0.289062L3.90828 1.85903V2.98941H4.32387C4.32387 2.98941 6.15247 2.98941 6.15247 4.83151V8.9553H0.375764C0.271866 8.9553 0.167969 9.05997 0.167969 9.16463V11.7813H6.17325C6.17325 11.7813 6.17325 14.5653 6.17325 17.8099V25.9947C6.17325 30.4534 9.02004 33.5515 14.0071 33.1329C15.0669 33.0491 16.0435 32.6305 16.8747 32.0862C17.2487 31.835 17.4773 31.4373 17.4773 30.9768V29.5743C15.8565 30.6628 14.485 30.6 14.485 30.6C11.3266 30.6 11.3889 26.5599 11.3889 26.5599V11.7813H25.9346L15.4617 22.4152C15.4409 23.8177 15.4201 24.9062 15.4201 24.9271C15.4201 24.969 15.4409 24.9899 15.4825 24.9899C25.0826 26.6227 27.68 32.8817 27.68 34.7028C27.68 34.7028 28.719 43.5575 19.9293 44.1645C19.9293 44.1645 14.1734 44.4157 13.1552 42.0922C13.1136 42.0084 13.1552 41.9247 13.2383 41.8828C14.1941 41.4432 14.8383 40.585 14.8383 39.4337C14.8383 37.7172 13.7993 36.3147 11.6175 36.3147C9.85122 36.3147 8.39665 37.7172 8.39665 39.4337C8.39665 39.4337 7.56547 46.8858 19.9085 46.6765C33.997 46.4253 33.1243 34.5144 33.1243 34.5144Z" fill="black"/>
</g>
<defs>
<filter id="filter0_i" x="26.4668" y="9.06592" width="35.2948" height="38.435" filterUnits="userSpaceOnUse" color-interpolation-filters="sRGB">
<feFlood flood-opacity="0" result="BackgroundImageFix"/>
<feBlend mode="normal" in="SourceGraphic" in2="BackgroundImageFix" result="shape"/>
<feColorMatrix in="SourceAlpha" type="matrix" values="0 0 0 0 0 0 0 0 0 0 0 0 0 0 0 0 0 0 127 0" result="hardAlpha"/>
<feOffset dy="1"/>
<feGaussianBlur stdDeviation="1.5"/>
<feComposite in2="hardAlpha" operator="arithmetic" k2="-1" k3="1"/>
<feColorMatrix type="matrix" values="0 0 0 0 0 0 0 0 0 0 0 0 0 0 0 0 0 0 0.24 0"/>
<feBlend mode="normal" in2="shape" result="effect1_innerShadow"/>
</filter>
<filter id="filter1_i" x="0.167969" y="0.289062" width="32.9669" height="47.3917" filterUnits="userSpaceOnUse" color-interpolation-filters="sRGB">
<feFlood flood-opacity="0" result="BackgroundImageFix"/>
<feBlend mode="normal" in="SourceGraphic" in2="BackgroundImageFix" result="shape"/>
<feColorMatrix in="SourceAlpha" type="matrix" values="0 0 0 0 0 0 0 0 0 0 0 0 0 0 0 0 0 0 127 0" result="hardAlpha"/>
<feOffset dy="1"/>
<feGaussianBlur stdDeviation="1.5"/>
<feComposite in2="hardAlpha" operator="arithmetic" k2="-1" k3="1"/>
<feColorMatrix type="matrix" values="0 0 0 0 0 0 0 0 0 0 0 0 0 0 0 0 0 0 0.24 0"/>
<feBlend mode="normal" in2="shape" result="effect1_innerShadow"/>
</filter>
</defs>
</svg>
