<svg width="271" height="51" viewBox="0 0 271 51" fill="none" xmlns="http://www.w3.org/2000/svg">
<path d="M145.977 49.8236V18.2064H156.385V10.54H126V18.2064H136.408V49.8236H145.977ZM166.144 50.2712C168.681 50.2712 170.975 49.8049 173.027 48.8722C175.079 47.9396 176.785 46.6525 178.147 45.011C179.509 43.3696 180.451 41.5229 180.973 39.4711H170.788C169.856 41.4856 168.196 42.4929 165.808 42.4929C164.204 42.4929 162.852 41.9799 161.751 40.954C160.651 39.9281 160.026 38.4451 159.877 36.5052H181.532C181.644 35.5352 181.7 34.6026 181.7 33.7072C181.7 30.5735 181.038 27.8315 179.714 25.4812C178.389 23.1309 176.552 21.3215 174.202 20.0531C171.852 18.7847 169.166 18.1505 166.144 18.1505C163.048 18.1505 160.306 18.8033 157.918 20.1091C155.53 21.4148 153.674 23.2801 152.35 25.705C151.026 28.1299 150.364 30.9652 150.364 34.2109C150.364 37.4565 151.035 40.2918 152.378 42.7167C153.721 45.1416 155.586 47.0069 157.974 48.3126C160.362 49.6184 163.085 50.2712 166.144 50.2712ZM171.908 31.189H159.932C160.194 29.473 160.874 28.1486 161.975 27.2159C163.075 26.2833 164.428 25.8169 166.032 25.8169C167.711 25.8169 169.11 26.3019 170.229 27.2719C171.348 28.2418 171.908 29.5476 171.908 31.189ZM206.518 49.8236V41.9333H192.976L206.238 26.2086V18.5982H182.4V26.4884H195.27L182.288 42.2131V49.8236H206.518ZM221.114 49.8236V26.5444H226.262V18.5982H221.114V18.3184C221.114 16.6769 221.487 15.539 222.233 14.9048C222.979 14.2706 224.266 14.0095 226.094 14.1214V6.00727C225.758 5.96996 225.236 5.95131 224.527 5.95131C220.274 5.95131 217.047 6.94926 214.846 8.94514C212.645 10.941 211.545 13.8603 211.545 17.7028V18.5982H208.075V26.5444H211.545V49.8236H221.114ZM232.837 15.3525C234.478 15.3525 235.831 14.8582 236.894 13.8696C237.957 12.881 238.489 11.6592 238.489 10.2042C238.489 8.71198 237.957 7.47154 236.894 6.48293C235.831 5.49431 234.478 5 232.837 5C231.158 5 229.787 5.49431 228.724 6.48293C227.661 7.47154 227.129 8.71198 227.129 10.2042C227.129 11.6592 227.661 12.881 228.724 13.8696C229.787 14.8582 231.158 15.3525 232.837 15.3525ZM237.593 49.8236V18.5982H228.025V49.8236H237.593ZM249.512 49.8236V32.8678C249.512 30.7787 250.053 29.1558 251.135 27.9994C252.217 26.8429 253.672 26.2646 255.5 26.2646C257.327 26.2646 258.782 26.8429 259.864 27.9994C260.946 29.1558 261.487 30.7787 261.487 32.8678V49.8236H271V31.5808C271 27.4398 269.909 24.1848 267.726 21.8158C265.544 19.4469 262.625 18.2624 258.969 18.2624C256.917 18.2624 255.071 18.6634 253.429 19.4655C251.788 20.2676 250.482 21.3588 249.512 22.7392V18.5982H239.943V49.8236H249.512Z" fill="black"/>
<line x1="95.25" x2="95.25" y2="50" stroke="#E3E4E6" stroke-width="2.5"/>
<path d="M36.4678 37.632L41.3614 37.6447C41.3614 43.6404 36.5366 48.5008 30.5849 48.5008L29.6143 48.5009C35.6617 46.041 36.4238 40.1101 36.4678 37.632ZM31.2993 37.6186L31.4923 37.6192C31.4872 38.4876 31.3776 39.8636 30.8547 41.2615C30.9441 40.8306 31.0224 40.3447 31.0919 39.795C31.1455 39.3705 31.2146 38.6451 31.2993 37.6186ZM27.8745 24.3446L53.6129 24.3553C53.6129 30.3521 48.7893 35.2146 42.8364 35.2185L36.2997 35.2228C35.3499 29.1427 30.3486 25.6856 27.8745 24.3446ZM61.7616 11.0659C61.7616 17.0628 56.9379 21.9253 50.9851 21.9292L26.4668 21.9451L36.1702 12.5253V11.3321C36.1702 11.2294 36.1208 11.1328 36.0455 11.0663L61.7616 11.0659Z" fill="black"/>
<g filter="url(#filter0_i)">
<path d="M36.4678 37.632L41.3614 37.6447C41.3614 43.6404 36.5366 48.5008 30.5849 48.5008L29.6143 48.5009C35.6617 46.041 36.4238 40.1101 36.4678 37.632ZM31.2993 37.6186L31.4923 37.6192C31.4872 38.4876 31.3776 39.8636 30.8547 41.2615C30.9441 40.8306 31.0224 40.3447 31.0919 39.795C31.1455 39.3705 31.2146 38.6451 31.2993 37.6186ZM27.8745 24.3446L53.6129 24.3553C53.6129 30.3521 48.7893 35.2146 42.8364 35.2185L36.2997 35.2228C35.3499 29.1427 30.3486 25.6856 27.8745 24.3446ZM61.7616 11.0659C61.7616 17.0628 56.9379 21.9253 50.9851 21.9292L26.4668 21.9451L36.1702 12.5253V11.3321C36.1702 11.2294 36.1208 11.1328 36.0455 11.0663L61.7616 11.0659Z" fill="black"/>
</g>
<path d="M33.1243 36.5144C32.6463 27.9947 22.0072 24.1221 20.989 23.7244C20.9475 23.7035 20.9475 23.6616 20.9683 23.6197L31.9398 12.5253V11.3321C31.9398 11.1437 31.7736 10.9762 31.5866 10.9762H11.3681V4.29863V2.28906L3.90828 3.85903V4.98941H4.32387C4.32387 4.98941 6.15247 4.98941 6.15247 6.83151V10.9553H0.375764C0.271866 10.9553 0.167969 11.06 0.167969 11.1646V13.7813H6.17325C6.17325 13.7813 6.17325 16.5653 6.17325 19.8099V27.9947C6.17325 32.4534 9.02004 35.5515 14.0071 35.1329C15.0669 35.0491 16.0435 34.6305 16.8747 34.0862C17.2487 33.835 17.4773 33.4373 17.4773 32.9768V31.5743C15.8565 32.6628 14.485 32.6 14.485 32.6C11.3266 32.6 11.3889 28.5599 11.3889 28.5599V13.7813H25.9346L15.4617 24.4152C15.4409 25.8177 15.4201 26.9062 15.4201 26.9271C15.4201 26.969 15.4409 26.9899 15.4825 26.9899C25.0826 28.6227 27.68 34.8817 27.68 36.7028C27.68 36.7028 28.719 45.5575 19.9293 46.1645C19.9293 46.1645 14.1734 46.4157 13.1552 44.0922C13.1136 44.0084 13.1552 43.9247 13.2383 43.8828C14.1941 43.4432 14.8383 42.585 14.8383 41.4337C14.8383 39.7172 13.7993 38.3147 11.6175 38.3147C9.85122 38.3147 8.39665 39.7172 8.39665 41.4337C8.39665 41.4337 7.56547 48.8858 19.9085 48.6765C33.997 48.4253 33.1243 36.5144 33.1243 36.5144Z" fill="black"/>
<g filter="url(#filter1_i)">
<path d="M33.1243 36.5144C32.6463 27.9947 22.0072 24.1221 20.989 23.7244C20.9475 23.7035 20.9475 23.6616 20.9683 23.6197L31.9398 12.5253V11.3321C31.9398 11.1437 31.7736 10.9762 31.5866 10.9762H11.3681V4.29863V2.28906L3.90828 3.85903V4.98941H4.32387C4.32387 4.98941 6.15247 4.98941 6.15247 6.83151V10.9553H0.375764C0.271866 10.9553 0.167969 11.06 0.167969 11.1646V13.7813H6.17325C6.17325 13.7813 6.17325 16.5653 6.17325 19.8099V27.9947C6.17325 32.4534 9.02004 35.5515 14.0071 35.1329C15.0669 35.0491 16.0435 34.6305 16.8747 34.0862C17.2487 33.835 17.4773 33.4373 17.4773 32.9768V31.5743C15.8565 32.6628 14.485 32.6 14.485 32.6C11.3266 32.6 11.3889 28.5599 11.3889 28.5599V13.7813H25.9346L15.4617 24.4152C15.4409 25.8177 15.4201 26.9062 15.4201 26.9271C15.4201 26.969 15.4409 26.9899 15.4825 26.9899C25.0826 28.6227 27.68 34.8817 27.68 36.7028C27.68 36.7028 28.719 45.5575 19.9293 46.1645C19.9293 46.1645 14.1734 46.4157 13.1552 44.0922C13.1136 44.0084 13.1552 43.9247 13.2383 43.8828C14.1941 43.4432 14.8383 42.585 14.8383 41.4337C14.8383 39.7172 13.7993 38.3147 11.6175 38.3147C9.85122 38.3147 8.39665 39.7172 8.39665 41.4337C8.39665 41.4337 7.56547 48.8858 19.9085 48.6765C33.997 48.4253 33.1243 36.5144 33.1243 36.5144Z" fill="black"/>
</g>
<defs>
<filter id="filter0_i" x="26.4668" y="11.0659" width="35.2948" height="38.435" filterUnits="userSpaceOnUse" color-interpolation-filters="sRGB">
<feFlood flood-opacity="0" result="BackgroundImageFix"/>
<feBlend mode="normal" in="SourceGraphic" in2="BackgroundImageFix" result="shape"/>
<feColorMatrix in="SourceAlpha" type="matrix" values="0 0 0 0 0 0 0 0 0 0 0 0 0 0 0 0 0 0 127 0" result="hardAlpha"/>
<feOffset dy="1"/>
<feGaussianBlur stdDeviation="1.5"/>
<feComposite in2="hardAlpha" operator="arithmetic" k2="-1" k3="1"/>
<feColorMatrix type="matrix" values="0 0 0 0 0 0 0 0 0 0 0 0 0 0 0 0 0 0 0.24 0"/>
<feBlend mode="normal" in2="shape" result="effect1_innerShadow"/>
</filter>
<filter id="filter1_i" x="0.167969" y="2.28906" width="32.9669" height="47.3917" filterUnits="userSpaceOnUse" color-interpolation-filters="sRGB">
<feFlood flood-opacity="0" result="BackgroundImageFix"/>
<feBlend mode="normal" in="SourceGraphic" in2="BackgroundImageFix" result="shape"/>
<feColorMatrix in="SourceAlpha" type="matrix" values="0 0 0 0 0 0 0 0 0 0 0 0 0 0 0 0 0 0 127 0" result="hardAlpha"/>
<feOffset dy="1"/>
<feGaussianBlur stdDeviation="1.5"/>
<feComposite in2="hardAlpha" operator="arithmetic" k2="-1" k3="1"/>
<feColorMatrix type="matrix" values="0 0 0 0 0 0 0 0 0 0 0 0 0 0 0 0 0 0 0.24 0"/>
<feBlend mode="normal" in2="shape" result="effect1_innerShadow"/>
</filter>
</defs>
</svg>
