<svg width="32" height="32" viewBox="0 0 32 32" fill="none" xmlns="http://www.w3.org/2000/svg">
<path d="M16 32C24.8366 32 32 24.8366 32 16C32 7.16344 24.8366 0 16 0C7.16344 0 0 7.16344 0 16C0 24.8366 7.16344 32 16 32Z" fill="#189DA3"/>
<path d="M15.9989 27.1218C22.1414 27.1218 27.1209 22.1424 27.1209 15.9999C27.1209 9.8574 22.1414 4.87793 15.9989 4.87793C9.85642 4.87793 4.87695 9.8574 4.87695 15.9999C4.87695 22.1424 9.85642 27.1218 15.9989 27.1218Z" stroke="white" stroke-width="1.95122"/>
<path d="M30.0492 11.707H1.9516C1.0895 11.707 0.390625 12.4059 0.390625 13.268V18.4583C0.390625 19.3204 1.0895 20.0192 1.9516 20.0192H30.0492C30.9113 20.0192 31.6101 19.3204 31.6101 18.4583V13.268C31.6101 12.4059 30.9113 11.707 30.0492 11.707Z" fill="white"/>
<path d="M30.4394 11.707H1.56136C0.914779 11.707 0.390625 12.2312 0.390625 12.8778V18.8485C0.390625 19.4951 0.914779 20.0192 1.56136 20.0192H30.4394C31.086 20.0192 31.6101 19.4951 31.6101 18.8485V12.8778C31.6101 12.2312 31.086 11.707 30.4394 11.707Z" fill="#189DA3"/>
<path d="M17.0073 7.90283H14.9941V10.8687H17.0073V7.90283Z" fill="white"/>
<path d="M17.0073 21.2876H14.9941V24.0974H17.0073V21.2876Z" fill="white"/>
<path d="M16.0003 29.6584C23.5437 29.6584 29.6589 23.5432 29.6589 15.9998C29.6589 8.45644 23.5437 2.34131 16.0003 2.34131C8.45693 2.34131 2.3418 8.45644 2.3418 15.9998C2.3418 23.5432 8.45693 29.6584 16.0003 29.6584Z" stroke="#189DA3" stroke-width="0.780488"/>
<path d="M15.9998 30.2432C23.8665 30.2432 30.2437 23.866 30.2437 15.9993C30.2437 8.13258 23.8665 1.75537 15.9998 1.75537C8.13307 1.75537 1.75586 8.13258 1.75586 15.9993C1.75586 23.866 8.13307 30.2432 15.9998 30.2432Z" stroke="#189DA3" stroke-width="1.17073"/>
<path d="M11.4609 19.2603V18.0381H13.3848V18.785C13.3848 19.7582 14.7429 20.2109 16.0104 20.2109C17.3005 20.2109 18.3191 19.6903 18.3191 18.7397C18.3191 17.5854 17.0516 17.2232 15.4672 16.6574L15.0878 16.5138C13.5016 15.9024 11.891 15.0998 11.891 13.1717C11.891 10.946 14.0577 10.0335 16.0238 10.0037L16.1236 10.0029C17.7306 10.0029 20.0845 10.6367 20.0845 12.3116V13.6923H18.1606V12.9454C18.1606 12.2437 17.2553 11.7684 16.1462 11.7684C15.0598 11.7684 14.1091 12.2211 14.1091 13.1491C14.1091 14.2355 15.3766 14.6882 16.7573 15.1635L17.0481 15.2614C18.7366 15.8376 20.5372 16.615 20.5372 18.6265C20.5372 20.7994 18.5454 21.999 15.9425 21.999C13.8602 21.999 11.4609 21.071 11.4609 19.2603Z" fill="white"/>
</svg>
