<?xml version="1.0" encoding="UTF-8" standalone="no"?><svg xmlns="http://www.w3.org/2000/svg" xmlns:xlink="http://www.w3.org/1999/xlink" contentScriptType="application/ecmascript" contentStyleType="text/css" height="295px" preserveAspectRatio="none" style="width:604px;height:295px;" version="1.1" viewBox="0 0 604 295" width="604px" zoomAndPan="magnify"><defs><filter height="300%" id="f6p766crd9qhe" width="300%" x="-1" y="-1"><feGaussianBlur result="blurOut" stdDeviation="2.0"/><feColorMatrix in="blurOut" result="blurOut2" type="matrix" values="0 0 0 0 0 0 0 0 0 0 0 0 0 0 0 0 0 0 .4 0"/><feOffset dx="4.0" dy="4.0" in="blurOut2" result="blurOut3"/><feBlend in="SourceGraphic" in2="blurOut3" mode="normal"/></filter></defs><g><rect fill="#FFFFFF" filter="url(#f6p766crd9qhe)" height="59.6211" style="stroke:#000000;stroke-width:2.0;" width="460.5" x="130" y="134.7988"/><line style="stroke:#A80036;stroke-width:1.0;stroke-dasharray:5.0,5.0;" x1="23" x2="23" y1="88.4883" y2="211.4199"/><line style="stroke:#A80036;stroke-width:1.0;stroke-dasharray:5.0,5.0;" x1="190" x2="190" y1="88.4883" y2="211.4199"/><text fill="#000000" font-family="sans-serif" font-size="14" lengthAdjust="spacing" textLength="31" x="5" y="85.5352">User</text><ellipse cx="23.5" cy="15" fill="#FEFECE" filter="url(#f6p766crd9qhe)" rx="8" ry="8" style="stroke:#A80036;stroke-width:2.0;"/><path d="M23.5,23 L23.5,50 M10.5,31 L36.5,31 M23.5,50 L10.5,65 M23.5,50 L36.5,65 " fill="none" filter="url(#f6p766crd9qhe)" style="stroke:#A80036;stroke-width:2.0;"/><text fill="#000000" font-family="sans-serif" font-size="14" lengthAdjust="spacing" textLength="31" x="5" y="223.9551">User</text><ellipse cx="23.5" cy="236.9082" fill="#FEFECE" filter="url(#f6p766crd9qhe)" rx="8" ry="8" style="stroke:#A80036;stroke-width:2.0;"/><path d="M23.5,244.9082 L23.5,271.9082 M10.5,252.9082 L36.5,252.9082 M23.5,271.9082 L10.5,286.9082 M23.5,271.9082 L36.5,286.9082 " fill="none" filter="url(#f6p766crd9qhe)" style="stroke:#A80036;stroke-width:2.0;"/><rect fill="#FEFECE" filter="url(#f6p766crd9qhe)" height="30.4883" style="stroke:#A80036;stroke-width:1.5;" width="97" x="140" y="53"/><text fill="#000000" font-family="sans-serif" font-size="14" lengthAdjust="spacing" textLength="83" x="147" y="73.5352">Comptroller</text><rect fill="#FEFECE" filter="url(#f6p766crd9qhe)" height="30.4883" style="stroke:#A80036;stroke-width:1.5;" width="97" x="140" y="210.4199"/><text fill="#000000" font-family="sans-serif" font-size="14" lengthAdjust="spacing" textLength="83" x="147" y="230.9551">Comptroller</text><polygon fill="#A80036" points="178.5,115.7988,188.5,119.7988,178.5,123.7988,182.5,119.7988" style="stroke:#A80036;stroke-width:1.0;"/><line style="stroke:#A80036;stroke-width:1.0;" x1="23.5" x2="184.5" y1="119.7988" y2="119.7988"/><text fill="#000000" font-family="sans-serif" font-size="13" lengthAdjust="spacing" textLength="143" x="30.5" y="115.0566">enterMarkets(cTokens)</text><path d="M130,134.7988 L204,134.7988 L204,141.7988 L194,151.7988 L130,151.7988 L130,134.7988 " fill="#EEEEEE" style="stroke:#000000;stroke-width:1.0;"/><rect fill="none" height="59.6211" style="stroke:#000000;stroke-width:2.0;" width="460.5" x="130" y="134.7988"/><text fill="#000000" font-family="sans-serif" font-size="13" font-weight="bold" lengthAdjust="spacing" textLength="29" x="145" y="148.3672">loop</text><text fill="#000000" font-family="sans-serif" font-size="11" font-weight="bold" lengthAdjust="spacing" textLength="126" x="219" y="147.4336">[for token in cTokens]</text><line style="stroke:#A80036;stroke-width:1.0;" x1="190.5" x2="232.5" y1="173.4199" y2="173.4199"/><line style="stroke:#A80036;stroke-width:1.0;" x1="232.5" x2="232.5" y1="173.4199" y2="186.4199"/><line style="stroke:#A80036;stroke-width:1.0;" x1="191.5" x2="232.5" y1="186.4199" y2="186.4199"/><polygon fill="#A80036" points="201.5,182.4199,191.5,186.4199,201.5,190.4199,197.5,186.4199" style="stroke:#A80036;stroke-width:1.0;"/><text fill="#000000" font-family="sans-serif" font-size="13" lengthAdjust="spacing" textLength="381" x="197.5" y="168.6777">addToMarketInternal(cToken = token, borrower = sp.sender)</text><!--MD5=[000c2b42da785c2d690c647b31402582]
@startuml
actor User
participant Comptroller

User -> Comptroller : enterMarkets(cTokens)
loop for token in cTokens
    Comptroller -> Comptroller : addToMarketInternal(cToken = token, borrower = sp.sender)
end
@enduml

PlantUML version 1.2021.00(Sun Jan 10 05:25:05 EST 2021)
(GPL source distribution)
Java Runtime: OpenJDK Runtime Environment
JVM: OpenJDK 64-Bit Server VM
Default Encoding: UTF-8
Language: en
Country: US
--></g></svg>